<svg width="86" height="167" viewBox="0 0 86 167" fill="none" xmlns="http://www.w3.org/2000/svg">
<path d="M1.4693 4.19442C1.8024 3.70191 2.20413 3.25939 2.66236 2.88024C3.998 1.72885 5.60137 0.930457 7.32575 0.558133C10.1699 -0.0370256 13.0931 -0.157221 15.9766 0.202429C17.0752 0.307381 18.1525 0.572962 19.1738 0.990676C19.7963 1.28762 20.2897 1.78014 20.9255 2.05933C21.9407 2.50509 23.0203 2.80615 24.0412 3.24747C25.056 3.68625 26.0485 4.17613 27.0167 4.70956C30.4663 6.67378 33.6745 9.03371 36.576 11.7414C38.0628 13.091 39.4964 14.498 40.8988 15.9345C41.5975 16.6502 42.2893 17.3724 42.9744 18.1011C43.2984 18.4093 43.5817 18.7575 43.8178 19.1372C43.902 19.3034 44.0029 19.4606 44.1191 19.6063C44.8557 20.4771 45.7464 21.2444 46.5285 22.0772C48.0496 23.6969 49.5365 25.3478 50.9892 27.0297C51.7153 27.8705 52.4326 28.7188 53.141 29.5746C53.4144 29.912 53.7275 30.2153 54.0736 30.4778C54.5424 30.9085 54.959 31.3925 55.3151 31.92C56.1419 32.9419 56.9669 33.9654 57.79 34.9904C58.5358 35.9193 59.2801 36.8495 60.0228 37.7809C61.6351 39.803 63.3523 41.7396 64.8946 43.8169C66.1427 45.498 67.3252 47.2252 68.4422 48.9984C68.9996 49.8837 69.549 50.7768 70.0639 51.6875C70.1597 51.8762 70.2401 52.0722 70.3043 52.2738C70.6871 53.0732 71.1282 53.8433 71.624 54.578C72.9734 56.9601 74.2042 59.4085 75.3347 61.9014C77.0096 65.6266 78.4968 69.4333 79.7906 73.307C80.4446 75.2447 81.0616 77.1943 81.6416 79.1559C81.9323 80.1338 82.2154 81.1139 82.491 82.0963C82.8483 83.3683 83.0804 84.6144 83.3718 85.8952C83.9845 88.5863 84.4831 91.3005 84.9195 94.0252C85.0401 94.7786 85.1567 95.5325 85.2693 96.287C85.7975 99.814 86.2604 103.397 85.8309 106.937C85.6652 107.723 85.5502 108.519 85.4866 109.32C85.4888 109.56 85.5406 109.794 85.5263 110.035C85.4346 110.704 85.2446 111.357 84.9623 111.972C84.4737 113.241 83.8336 114.447 83.0559 115.563C82.0255 117.046 80.7677 118.358 79.3286 119.45C78.5992 120.006 77.8228 120.498 77.0082 120.92C76.2564 121.227 75.4828 121.478 74.6938 121.67C69.2224 123.481 63.5365 122.019 58.4404 119.77C57.0019 119.176 55.6591 118.374 54.4558 117.388C54.0979 117.08 53.6057 116.901 53.2217 116.615C52.4032 116.006 51.7276 115.226 51.2419 114.329C51.3704 114.983 51.4686 115.641 51.5364 116.304C51.5884 116.812 51.4701 117.273 51.5066 117.771C51.6056 119.122 51.681 120.47 51.6887 121.824C51.6934 122.812 51.6692 123.799 51.6161 124.785C51.5674 125.688 51.4013 126.61 51.3961 127.512C51.4189 127.772 51.423 128.033 51.4082 128.294C51.2903 129.124 51.1441 129.952 51.0075 130.779C50.7339 132.435 50.4477 134.089 50.1488 135.74C49.8342 137.733 49.3662 139.699 48.749 141.62C48.7728 141.779 48.7614 141.941 48.7157 142.095C47.0327 147.745 44.1636 152.971 40.2995 157.426C40.3572 157.482 40.4136 157.539 40.4721 157.593C40.0787 158.055 39.658 158.493 39.2123 158.905C39.224 158.894 39.9139 159.539 39.9722 159.608C40.0916 159.783 40.1968 159.966 40.2866 160.157C40.6728 160.795 41.2181 161.364 41.6524 161.974C41.6753 162.006 41.6931 162.044 41.715 162.078C41.9231 162.262 42.1213 162.456 42.3328 162.637C42.837 163.068 43.4701 164.681 42.4723 164.973C38.4138 166.159 34.224 166.84 29.9984 166.999C29.1139 167.033 28.7939 165.671 28.9172 165.034C29.3725 162.692 30.0008 160.386 30.7968 158.136C31.0786 157.338 31.3722 156.547 31.6733 155.755C31.8357 155.328 31.9982 154.901 32.1608 154.473C32.3453 154.098 32.4943 153.706 32.6058 153.303C32.6418 153.173 32.7142 153.056 32.8146 152.965C33.0749 152.773 33.4307 153.001 33.6655 153.224C34.1148 153.649 34.5486 154.09 34.967 154.547C35.2614 154.956 35.609 155.325 36.0006 155.643C36.3404 155.832 36.6532 156.067 36.9309 156.339C36.9556 156.375 36.9737 156.415 36.9845 156.457C40.8288 152.345 43.1373 147.073 45.2947 141.93C45.2364 141.884 45.1791 141.836 45.1204 141.791C46.4604 137.843 47.2193 133.722 47.3732 129.556C47.4556 127.551 47.501 125.544 47.5095 123.537C47.5132 122.665 47.669 121.604 47.439 120.76C47.2531 119.781 47.161 118.786 47.1638 117.789C47.0678 116.502 46.9422 115.218 46.7868 113.936C46.7158 113.345 46.6391 112.754 46.5568 112.164C46.5155 111.867 46.4728 111.57 46.4287 111.274C46.4156 111.077 46.3861 110.882 46.3404 110.691C46.2826 110.643 46.2263 110.594 46.1682 110.546C45.8987 109.75 45.6073 108.961 45.3065 108.179C45.0088 107.544 44.5593 106.992 43.9976 106.572C42.494 105.231 40.9966 103.884 39.5196 102.514C36.5487 99.7999 33.7198 96.9344 31.044 93.9292C30.3554 93.1443 29.683 92.3455 29.0268 91.533C28.6883 91.1582 28.3799 90.7574 28.1042 90.3343C27.9653 90.0269 27.8025 89.7308 27.6174 89.4487C25.0907 86.2201 23.693 82.4232 22.6795 78.4877C22.301 77.0174 21.9675 75.4593 22.3811 73.9986C22.6259 73.1364 23.1744 72.3916 23.9254 71.9014C24.2765 71.6726 24.6763 71.5288 25.0929 71.4813C25.2957 71.4713 25.4989 71.4864 25.698 71.526C26.2809 71.6031 26.8788 71.4573 27.475 71.5231C27.715 71.5549 27.9465 71.6335 28.1562 71.7543C28.6691 72.0247 29.2167 72.21 29.7321 72.4753C31.1855 73.2959 32.4555 74.4049 33.4638 75.7341C37.1183 80.2073 41.1499 84.3953 43.7643 89.6462C45.5333 93.1992 46.7686 96.933 48.1084 100.655C48.7919 102.554 49.0982 104.565 49.7995 106.458C50.3604 107.972 50.404 109.649 51.2691 111.043C51.9498 112.122 52.7649 113.11 53.6947 113.984C54.1672 114.43 54.6657 114.847 55.1876 115.234C56.437 116.149 57.7842 116.922 59.2045 117.54C59.9015 117.876 60.6251 118.154 61.368 118.371C61.8622 118.497 62.3754 118.484 62.8691 118.608C64.3821 118.988 65.6987 119.669 67.2886 119.833C68.877 119.995 70.4819 119.865 72.0231 119.448C73.4339 119.065 74.5516 118.305 75.8592 117.718C76.326 117.565 76.7692 117.348 77.1761 117.074C79.573 115.122 80.8474 111.633 81.4171 108.7C82.5537 102.849 81.6411 96.6472 80.5121 90.8983C80.2893 89.764 80.0431 88.6346 79.7735 87.5101C79.482 86.2948 79.0877 85.1278 78.7571 83.9354C78.4403 82.7927 78.1145 81.6525 77.7799 80.5148C77.3958 79.2088 76.8898 77.9816 76.4998 76.6873C75.8327 74.3199 75.0353 71.9911 74.1113 69.7115C73.6975 68.7402 73.2716 67.7742 72.8339 66.8134C71.9583 64.8918 71.0359 62.9926 70.0665 61.1157C68.1285 57.3631 66.0099 53.7113 63.7108 50.1602C61.4153 46.6148 58.9498 43.1872 56.3143 39.8774C55.596 38.9758 54.8657 38.0839 54.1234 37.2017C52.6426 35.442 51.5432 33.4661 50.1535 31.6646C49.4813 30.7932 48.799 29.9299 48.1066 29.0746C46.7218 27.3641 45.2975 25.6865 43.8336 24.0419C40.9069 20.754 37.8306 17.6075 34.6048 14.6025C33.9283 13.9725 33.2456 13.3491 32.5567 12.7324C29.5302 9.91556 26.217 7.42267 22.6713 5.29446C20.8991 4.26533 19.0301 3.41236 17.0911 2.74781C16.0785 2.43411 15.0497 2.17488 14.0092 1.97123C13.3554 1.78029 12.6864 1.64571 12.0096 1.56897C9.13125 1.43088 4.74003 2.92458 3.76501 5.95297C2.65823 9.3904 2.8455 13.0328 3.28394 16.5915C3.40497 17.2046 3.48814 17.8245 3.533 18.4478C3.53149 18.5788 3.53735 18.7098 3.55056 18.8401C3.59447 19.2209 3.66889 19.6015 3.7247 19.9809C3.36308 19.9412 3.00634 19.8655 2.65977 19.755C2.28915 19.5922 1.95458 19.3575 1.67545 19.0645C1.25614 18.6119 0.901779 18.1034 0.622513 17.5534C0.590614 17.4907 0.55999 17.4284 0.531212 17.3668C0.304863 16.7748 0.185616 16.1473 0.179047 15.5137C0.0935593 14.4641 0.0417175 13.4125 0.0235214 12.3589C-0.0245132 9.60337 -0.148933 6.56166 1.4693 4.19442ZM44.0023 101.322C43.6823 100.412 43.3004 99.5252 42.8595 98.6672C42.6561 98.3223 42.5129 97.9453 42.436 97.5525C42.1936 96.7391 41.9242 95.9344 41.628 95.1383C41.3297 94.3366 41.0049 93.5455 40.6535 92.7647C40.4552 92.1273 40.1575 91.525 39.7714 90.9802C39.6874 90.89 39.5759 90.8269 39.4965 90.7332C39.301 90.4234 39.152 90.0867 39.0542 89.7337C38.7545 89.0039 38.4333 88.2833 38.0906 87.5719C36.3269 83.9109 34.018 80.5381 31.2425 77.5684C30.5481 76.8219 29.8134 76.1139 29.0416 75.4475C28.4613 74.9979 27.7976 74.6677 27.0888 74.4758C26.5224 74.3017 25.5754 73.8315 25.3079 74.624C25.1844 75.1748 25.1541 75.7425 25.2182 76.3033C25.4093 81.3743 27.3997 86.212 30.8334 89.9516C31.2669 90.4221 31.7217 90.8717 32.1978 91.3005C32.6672 91.7516 33.1076 92.232 33.5163 92.7388C34.2719 93.6117 35.0451 94.4689 35.8359 95.3105C37.2959 96.864 38.813 98.361 40.3875 99.8014C41.174 100.521 41.9739 101.225 42.7873 101.915C43.1547 102.304 43.5678 102.648 44.0178 102.938C44.8386 103.313 44.0513 101.497 44.0023 101.322ZM34.0642 157.294C33.9923 157.226 33.7918 156.95 33.6898 156.932C33.4439 156.888 33.0492 158.278 32.9579 158.517C32.5624 159.551 32.2042 160.598 31.8834 161.658C31.8083 161.906 31.2598 164.32 31.1607 164.329C31.7774 164.272 32.3945 164.219 33.0108 164.156C33.5954 164.136 34.1769 164.061 34.7474 163.931C35.8073 163.606 37.0474 163.664 38.1579 163.584L38.9939 163.524C39.2426 163.545 39.4931 163.524 39.7346 163.461C39.9134 163.36 39.9078 163.175 39.8235 163.003C39.72 162.792 39.4858 162.652 39.324 162.494C38.9689 162.146 38.6311 161.78 38.2829 161.425C37.982 161.119 37.6799 160.814 37.3765 160.511C36.9701 160.104 36.5614 159.699 36.1504 159.297C35.4612 158.623 34.7658 157.955 34.0642 157.294Z" fill="#E13363"/>
</svg>
