<svg width="45" height="44" viewBox="0 0 45 44" fill="none" xmlns="http://www.w3.org/2000/svg">
<path d="M2.16388 31.269C3.32969 33.8961 5.02996 36.2533 7.15703 38.1913C9.2841 40.1293 11.7916 41.606 14.5209 42.5277C19.7826 44.3971 25.515 44.4888 30.8342 42.7887C33.365 41.9516 35.6922 40.5957 37.6658 38.8082C39.5159 37.0708 41.0575 35.0336 42.2253 32.783C44.3875 28.6627 45.3174 24.0102 44.9043 19.3784C44.5695 15.4489 43.0551 11.7111 40.5583 8.65223C40.2957 8.33854 40.0418 8.03512 39.7964 7.74198L39.7282 7.66798L39.608 7.53764L39.3805 7.29051C39.3805 7.29051 38.9607 6.86761 38.5157 6.49253C38.2491 6.24071 37.9663 6.00646 37.6691 5.79128C37.0345 5.31975 36.5555 5.07116 36.9658 5.64805L36.8549 5.56024C36.4069 5.20643 35.9406 4.87619 35.4579 4.57093C34.9728 4.25989 34.5099 3.90476 33.9948 3.62309C33.8817 3.55559 33.7608 3.49633 33.6463 3.43017C33.6303 3.4101 33.6121 3.39151 33.5962 3.37131C33.5761 3.35784 33.5539 3.34783 33.5305 3.34169C33.5093 3.33691 33.4932 3.3377 33.4732 3.33437C31.5392 2.2316 29.4754 1.37241 27.3291 0.776487C22.2238 -0.643516 16.77 -0.102889 12.0451 2.29153C7.03313 4.87998 3.18292 9.25533 1.2612 14.5463C0.286594 17.2432 -0.130359 20.1088 0.0354579 22.9706C0.20584 25.847 0.928383 28.6641 2.16388 31.269ZM36.7863 6.57213C37.1855 6.88847 37.4859 7.12669 37.6473 7.25477C37.5818 7.30433 37.5267 7.34325 37.4486 7.4053C37.3702 7.46496 37.2882 7.52953 37.206 7.5953C37.07 7.37943 36.917 7.17466 36.7485 6.98293C36.4267 6.58261 36.0221 6.10684 35.7301 5.76738C35.8233 5.83142 35.9208 5.89292 36.0124 5.95855C36.2753 6.16688 36.5333 6.37141 36.7863 6.57213ZM33.7974 10.9658C33.3122 10.236 32.6425 9.38457 32.6425 9.38457L32.0639 8.7536L31.0328 7.65628C30.3415 6.92833 29.6382 6.21325 28.9307 5.50283C27.5153 4.08279 26.0758 2.69106 24.6404 1.29865L24.3799 1.04541C24.9933 1.12832 25.5986 1.23656 26.1958 1.37013C26.1644 1.46673 26.1604 1.57005 26.184 1.6688C26.1842 1.67921 26.1865 1.68947 26.1909 1.69892C26.1953 1.70838 26.2016 1.71681 26.2095 1.72368C26.5467 2.06274 26.9027 2.38269 27.2758 2.68202C29.1588 4.21766 30.8347 5.98961 32.2617 7.95377L32.6885 8.46754C32.6885 8.46754 33.0925 8.89936 33.5088 9.30619C33.7645 9.57043 34.0359 9.81911 34.3215 10.0509C34.3863 10.1028 34.4462 10.1481 34.5073 10.1945L33.7974 10.9658ZM35.159 9.48622L34.7844 9.8933C34.7456 9.84335 34.719 9.80548 34.6733 9.74914C34.0271 8.87105 33.3983 8.0166 33.3983 8.0166L32.9077 7.4263C32.1335 6.48311 31.3723 5.51399 30.5455 4.58435C30.1317 4.11747 29.7077 3.66853 29.239 3.22901C28.7676 2.79933 28.2754 2.42134 27.8077 2.0371C27.6661 1.92072 27.5287 1.80286 27.3923 1.68435C28.082 1.87727 28.7577 2.09657 29.4193 2.34228L30.3033 3.22729C31.2464 4.18391 32.1719 5.15709 33.0799 6.14683L33.5253 6.63536C33.5253 6.63536 35.1841 8.2842 35.1289 8.20395C35.3398 8.42505 35.5831 8.61307 35.8504 8.76159L35.7875 8.81898L35.159 9.48622ZM35.9263 8.69276C35.8251 8.4155 35.6806 8.15596 35.4981 7.92375C35.0101 7.16483 34.2183 6.15918 34.2183 6.15918L33.6962 5.58534C32.951 4.77076 32.1848 3.97571 31.4153 3.18384C31.995 3.46339 32.5612 3.76086 33.1053 4.08518C33.3488 4.38518 33.5958 4.68147 33.8537 4.965L34.2133 5.35297L34.6803 5.83592C34.6803 5.83592 35.114 6.21512 35.5615 6.60653C36.0016 6.98094 36.4375 7.33728 36.4079 7.29728C36.6088 7.45642 36.8219 7.59972 37.0451 7.7259C36.5949 8.09433 36.145 8.49492 35.9263 8.69276ZM23.0494 0.906034C23.0532 0.912544 23.0543 0.923962 23.061 0.930605L24.0568 1.8972C25.4686 3.26649 26.8815 4.63111 28.2671 6.01954C28.9606 6.71308 29.646 7.4136 30.3233 8.12105L31.3314 9.18913L31.95 9.86261C31.95 9.86261 32.3635 10.2685 32.7748 10.6726C33.0504 10.9496 33.3138 11.2112 33.4508 11.3424L33.3468 11.4554L32.1176 12.826L32.102 12.8074C31.4077 12.001 30.6917 11.1699 30.6917 11.1699L29.1474 9.60751C28.5137 8.96073 27.8773 8.31183 27.2232 7.67595C26.5644 7.04073 25.9091 6.41562 25.1791 5.8281C24.4566 5.25014 23.7106 4.73289 23.0126 4.18283C22.6587 3.90813 22.3194 3.61522 21.9961 3.30528C21.9748 3.29485 21.9518 3.28806 21.9282 3.28521C21.837 3.26366 21.7416 3.26869 21.6532 3.29969C21.5647 3.33068 21.4871 3.38635 21.4295 3.46007C21.4363 2.93752 21.4517 2.41523 21.4852 1.89308L21.4867 1.86863C21.6926 2.1136 21.9162 2.34318 22.1557 2.55553C22.8866 3.19022 23.6955 3.70108 24.38 4.25645C25.0437 4.84649 25.7205 5.5104 26.3715 6.15877L28.315 8.15108L29.91 9.81134C29.91 9.81134 31.6529 11.3937 31.6021 11.3054C32.3445 11.8966 32.9029 12.1824 31.9496 10.999C31.4067 10.2837 30.5871 9.31243 30.5871 9.31243L29.0174 7.67848L27.0315 5.63795C26.3546 4.96221 25.6882 4.306 24.9568 3.65072C24.1805 3.0151 23.393 2.52603 22.7055 1.92588C22.382 1.65859 22.0989 1.34622 21.8648 0.998379C21.847 0.986136 21.8277 0.976251 21.8074 0.969003C21.7259 0.945176 21.6416 0.932231 21.5567 0.930484L21.562 0.855817C22.0603 0.855551 22.5566 0.870958 23.0494 0.906034ZM22.2245 23.7715L22.1777 21.6868L22.1412 21.2854L22.1372 21.2285L22.1771 21.2752L22.7164 21.8875C22.8565 21.9799 23.0034 22.0615 23.156 22.1313C23.3703 22.2107 23.583 22.1631 23.4962 21.8182C23.4659 21.6565 23.4174 21.4987 23.3518 21.3477L22.8195 20.7411C22.5534 20.4341 22.3052 20.1187 22.3186 20.1282L22.2853 20.1403C22.2211 20.1815 22.1534 20.2172 22.083 20.2468C22.0525 19.7127 22.0292 19.1774 22.0133 18.6409C22.2103 18.9007 22.4451 19.198 22.701 19.4952C23.1047 19.9646 23.5331 20.4123 23.9843 20.8366C23.9843 20.8366 24.2109 21.0009 24.4426 21.1519C23.8037 21.8642 23.1752 22.5875 22.5686 23.333C22.4526 23.4779 22.3399 23.6261 22.2245 23.7715ZM24.8992 20.6547C24.7321 20.438 24.59 20.2621 24.59 20.2621C24.1546 19.8544 23.7415 19.4237 23.3524 18.9717C23.0588 18.6308 22.7792 18.2757 22.5765 18.0012C22.3725 17.7272 22.2434 17.5353 22.2368 17.5251C22.2223 17.5204 22.207 17.5185 22.1917 17.5195C22.1196 17.5272 22.0488 17.5442 21.981 17.5701C21.977 17.3666 21.9742 17.1623 21.9709 16.9586C22.0147 17.0108 22.0557 17.0659 22.0999 17.1179C22.4568 17.5363 22.8242 17.9449 23.2021 18.3438L23.6683 18.8277C23.6683 18.8277 24.1093 19.2262 24.557 19.5966C24.8591 19.849 25.161 20.0847 25.3169 20.2002C25.1775 20.3514 25.0383 20.5029 24.8992 20.6547ZM25.6547 19.8327C24.918 18.9858 24.3399 18.3216 24.3399 18.3216L23.8094 17.7728C23.4421 17.3832 23.085 16.9848 22.7382 16.5775C22.4659 16.2584 22.2044 15.9313 21.9485 15.6007C21.9448 15.3246 21.9358 15.0479 21.9313 14.7714C22.0297 14.8722 22.1226 14.9793 22.2224 15.078C22.7172 15.5708 23.2268 16.0431 23.7372 16.5087L24.2293 16.9558L25.1314 17.6819C25.5763 18.0409 26.0028 18.4001 25.9745 18.3598C26.1738 18.5258 26.3858 18.676 26.6087 18.8091C26.2885 19.1479 25.9725 19.4908 25.6547 19.8327ZM26.7494 18.6603C26.6212 18.4465 26.4773 18.2425 26.3189 18.0499C25.7641 17.3311 24.8721 16.4141 24.8721 16.4141L24.3006 15.8945C23.7942 15.4316 23.2945 14.9667 22.8143 14.4873C22.4993 14.1755 22.1959 13.8556 21.9039 13.5275C21.8967 13.2428 21.8952 12.9591 21.8851 12.674L21.8803 12.5855C22.0891 12.7734 22.2942 12.9307 22.4659 13.1055C23.0964 13.6939 23.7152 14.3161 24.3371 14.9352L24.8097 15.4039L25.6978 16.1643C25.9743 16.4054 26.2635 16.6315 26.5643 16.8417C27.3525 17.3896 27.924 17.6202 26.8931 16.5156L25.4745 14.8891L24.9272 14.3464C24.3056 13.7267 23.6874 13.103 23.0348 12.4928C22.7003 12.2222 22.3883 11.9251 22.1019 11.6042C22.0853 11.5947 22.0672 11.5881 22.0485 11.5846C21.964 11.573 21.8947 11.5667 21.8251 11.5617C21.8024 11.1765 21.778 10.792 21.7517 10.4083C21.9841 10.5838 22.2184 10.7568 22.4458 10.9396C23.7157 11.9747 24.9278 13.0781 26.0769 14.2451L26.5409 14.7144C26.5409 14.7144 26.9664 15.1023 27.3958 15.4938C27.8177 15.8812 28.2305 16.2622 28.2034 16.2207C28.3808 16.3734 28.5481 16.5077 28.6854 16.6045C28.0423 17.2894 27.397 17.9747 26.7494 18.6603ZM28.8814 16.3946C28.8056 16.2713 28.7088 16.1257 28.5613 15.9261C28.0444 15.1876 27.2147 14.2116 27.2147 14.2116L26.6689 13.6582C25.4988 12.4689 24.2643 11.3443 22.971 10.2894C22.6061 9.99574 22.2353 9.70824 21.8537 9.43361C21.83 9.42569 21.8051 9.42168 21.78 9.42177C21.7481 9.42479 21.7164 9.42955 21.685 9.436C21.6514 8.96048 21.619 8.48576 21.5876 8.01184C21.7893 8.27348 22.0145 8.51624 22.2604 8.73714C22.6866 9.12616 23.1365 9.45658 23.5401 9.79778C23.9207 10.127 24.3291 10.5376 24.7159 10.9092L27.049 13.2287L27.5203 13.6977L28.4003 14.4614C28.8384 14.8366 29.2758 15.1946 29.2465 15.154C29.4237 15.2881 29.5882 15.4029 29.7272 15.4894C29.4488 15.7932 29.1637 16.0931 28.8814 16.3946ZM29.9266 15.2695C29.8437 15.1542 29.7394 15.0193 29.5864 14.8391C29.0258 14.1386 28.1865 13.1847 28.1865 13.1847L27.6395 12.6404L25.3007 10.3136C24.8955 9.92479 24.5313 9.55305 24.0823 9.16243C23.6467 8.79506 23.2098 8.47312 22.8249 8.1205C22.5099 7.85695 22.2461 7.53793 22.0467 7.17931C22.0304 7.16554 22.0119 7.15454 21.992 7.14675C21.8483 7.07702 21.684 7.06209 21.53 7.10477C21.498 6.56056 21.473 6.01714 21.4549 5.47453C21.7451 5.774 22.0427 6.06273 22.3449 6.33763C24.0766 7.86524 25.7054 9.50509 27.2205 11.2465L27.6682 11.7379L28.511 12.5435C28.9311 12.9396 29.3545 13.3157 29.3268 13.2739C30.0638 13.8777 30.6165 14.1654 29.6795 12.9731C29.1482 12.252 28.3587 11.2579 28.3587 11.2579L27.8392 10.6878C26.3067 8.92636 24.6598 7.26708 22.9092 5.72073C22.5712 5.41302 22.2424 5.10252 21.937 4.77794C21.9157 4.76671 21.8926 4.759 21.8688 4.75509C21.7951 4.73865 21.7188 4.73706 21.6444 4.75043C21.57 4.7638 21.4991 4.79185 21.4358 4.83294C21.4293 4.52842 21.4287 4.22403 21.429 3.91965C21.7679 4.24353 22.1231 4.54995 22.4933 4.83772C23.2066 5.39894 23.9382 5.90715 24.6203 6.45069C25.2936 6.98812 25.9399 7.59956 26.5753 8.20967C27.2097 8.82442 27.8316 9.45659 28.4544 10.0919L30.0252 11.6823L30.9103 12.4455C31.1846 12.6875 31.471 12.9155 31.7683 13.1288L31.8164 13.1621L29.9266 15.2695ZM1.74327 15.7884C3.33771 10.5269 6.92259 6.09005 11.7397 3.41622C14.0186 2.14488 16.5228 1.32508 19.1141 1.00197C19.6504 0.93527 20.1863 0.89594 20.7209 0.873353C20.6997 1.18186 20.6629 1.52159 20.6493 1.84272C20.5801 5.40755 20.7114 8.97344 21.0428 12.5236C21.1099 14.287 21.1105 16.061 21.1476 17.8425C21.1678 18.7336 21.199 19.6265 21.2511 20.5204L21.3364 21.6516C21.3364 21.6516 21.4193 22.2378 21.5293 22.8078C21.6334 23.3781 21.7662 23.9304 21.7643 23.8805C21.7994 24.0033 21.8347 24.1184 21.8696 24.2239C21.8151 24.2946 21.7579 24.3632 21.7042 24.4345C21.6959 24.458 21.6915 24.4826 21.6912 24.5075C21.7117 25.0748 22.1194 25.0413 22.3238 24.9688C22.3337 24.9675 22.3432 24.9642 22.3517 24.9589C22.3601 24.9537 22.3674 24.9466 22.3729 24.9383C22.6473 24.573 22.9333 24.2154 23.2197 23.8583C23.866 23.063 24.5433 22.2917 25.2318 21.5285C25.3857 21.5562 25.465 21.5106 25.3952 21.3506C25.6081 21.1157 25.8228 20.8818 26.039 20.6487C26.2911 20.7728 26.3918 20.7504 26.1986 20.4748C27.5466 19.0229 28.9294 17.5929 30.28 16.1237L32.5525 13.5889C32.6208 13.6035 32.6479 13.5792 32.6247 13.5082L33.7863 12.2126L34.0839 11.888C34.3286 12.0646 34.4338 12.0547 34.253 11.7036L35.5563 10.2821L36.319 9.46973C36.319 9.46973 36.6943 9.02425 37.0646 8.5846C37.4343 8.14735 37.7992 7.72139 37.7584 7.74983C37.8744 7.60474 37.9731 7.47135 38.0574 7.35018C38.1335 7.33446 38.2045 7.29965 38.2634 7.24905L38.6923 7.77346L38.9163 8.0166C38.9874 8.09406 39.074 8.188 39.1733 8.29589L39.2782 8.42132C39.5549 8.76371 39.8609 9.0928 40.1265 9.46017C40.6989 10.1944 41.2184 10.9681 41.681 11.7756C42.6858 13.5112 43.3947 15.401 43.7788 17.3681C44.6038 21.8465 44.0913 26.4679 42.3047 30.6585C41.3486 32.9423 40.0185 35.0519 38.3687 36.9011C36.6521 38.8311 34.534 40.3648 32.162 41.3953C27.0936 43.4619 21.4693 43.7409 16.2201 42.1863C13.5299 41.4263 11.0093 40.1626 8.79305 38.4629C6.57347 36.7287 4.75448 34.5384 3.45973 32.041C2.11431 29.5629 1.26291 26.8486 0.952537 24.0479C0.65762 21.2698 0.926535 18.4608 1.74327 15.7884Z" fill="#E13363"/>
<path d="M21.2776 37.3365C20.9741 37.7307 20.6586 38.1276 20.3666 38.5335C20.0567 38.9627 19.7826 39.4069 19.4966 39.8333C19.2106 40.2628 18.9392 40.695 18.662 41.1127C18.5233 41.3244 18.382 41.5304 18.2552 41.7304C18.1166 41.9391 17.9101 42.1742 18.0426 42.4302C18.0601 42.4591 18.0842 42.4835 18.1129 42.5014C18.1416 42.5193 18.1741 42.5302 18.2078 42.5331C18.5086 42.4979 18.6384 42.2654 18.783 42.0359C18.9068 41.8303 19.0424 41.6273 19.1662 41.4096C19.4465 40.9714 19.7149 40.542 19.9921 40.1038C20.2545 39.6747 20.5257 39.2482 20.7854 38.8127C21.0387 38.3688 21.2658 37.9068 21.5047 37.4569C21.5962 37.2717 21.3839 37.1747 21.2776 37.3365Z" fill="#E13363"/>
<path d="M16.7879 37.0622C16.5297 37.3609 16.2613 37.6616 16.0129 37.9693C15.7494 38.2945 15.5162 38.6311 15.273 38.9542C15.0297 39.2796 14.7988 39.6071 14.563 39.9236C14.4452 40.084 14.325 40.2402 14.2171 40.3917C14.0992 40.5498 13.9235 40.728 14.0362 40.922C14.0511 40.9439 14.0716 40.9624 14.096 40.976C14.1204 40.9895 14.1481 40.9977 14.1767 41C14.4326 40.9733 14.543 40.7971 14.666 40.6232C14.7713 40.4674 14.8867 40.3136 14.992 40.1486C15.2303 39.8166 15.4587 39.4912 15.6945 39.1592C15.9177 38.834 16.1483 38.5108 16.3692 38.1808C16.5847 37.8445 16.7778 37.4944 16.981 37.1534C17.0588 37.0131 16.8783 36.9396 16.7879 37.0622Z" fill="#E13363"/>
<path d="M24.1195 38.0515C23.922 38.3897 23.7245 38.7309 23.5415 39.0899C23.3616 39.4221 23.2085 39.769 23.0433 40.1075C22.716 40.8013 22.3856 41.4985 22.0465 42.1897C21.9728 42.3424 21.9641 42.6071 22.1908 42.6513C22.427 42.6805 22.5921 42.4572 22.6716 42.2807C22.9457 41.5778 23.2142 40.8779 23.4914 40.1867C23.63 39.8338 23.7804 39.4955 23.9015 39.1426C24.028 38.7899 24.1313 38.4253 24.2406 38.0633C24.2669 37.9723 24.1491 37.9898 24.1195 38.0515Z" fill="#E13363"/>
<path d="M28.1493 37.0922C27.6127 37.7022 27.1614 38.3818 26.8077 39.1126C26.4606 39.8522 26.1957 40.6273 26.0174 41.4243C25.9555 41.6682 26.0558 41.927 26.3623 41.8917C26.5012 41.8611 26.627 41.7879 26.7222 41.6825C26.8174 41.577 26.8771 41.4445 26.8931 41.3035C27.0157 40.6034 27.2093 39.9176 27.4711 39.2566C27.7438 38.5674 28.0743 37.9024 28.4591 37.2687C28.6152 37.0245 28.3057 36.904 28.1493 37.0922Z" fill="#E13363"/>
<path d="M32.7181 36.0753C32.2892 36.5738 31.9284 37.1292 31.6456 37.7264C31.3682 38.3307 31.1564 38.9641 31.0139 39.6154C30.9644 39.8147 31.0446 40.0261 31.2896 39.9974C31.4006 39.9723 31.5012 39.9125 31.5773 39.8263C31.6534 39.7402 31.7012 39.6319 31.7139 39.5167C31.8119 38.9446 31.9667 38.3842 32.176 37.844C32.394 37.2809 32.6582 36.7375 32.9658 36.2196C33.0906 36.02 32.8432 35.9215 32.7181 36.0753Z" fill="#E13363"/>
</svg>
