<svg width="71" height="44" viewBox="0 0 71 44" fill="none" xmlns="http://www.w3.org/2000/svg">
<path d="M1.47434 43.5502C0.804765 40.2328 1.07383 36.7951 2.25141 33.6215C3.59865 30.0546 6.60596 25.411 11.0164 25.8527C18.8407 26.6363 19.8674 36.3161 20.1659 42.3542C20.3916 42.2141 20.6172 42.0739 20.8429 41.9338C14.2843 42.7344 7.70178 43.2337 1.09522 43.4317C0.726163 43.4428 -0.159784 44.0124 0.614981 43.989C7.31647 43.7863 13.996 43.2778 20.6534 42.4634C20.8382 42.4409 21.3436 42.3093 21.3304 42.043C21.1135 37.6572 20.8451 32.9852 18.1991 29.282C16.1525 26.4177 12.6699 24.6652 9.13682 25.4607C1.58374 27.1611 -0.954199 37.3229 0.30982 43.8614C0.37087 44.1771 1.5423 43.9017 1.47434 43.5502Z" fill="#E13363"/>
<path d="M7.28841 33.3363C6.98493 33.7305 6.66936 34.1274 6.37736 34.5334C6.06754 34.9625 5.79337 35.4068 5.50741 35.8332C5.22145 36.2627 4.94996 36.6948 4.67276 37.1125C4.53415 37.3242 4.39284 37.5303 4.26601 37.7302C4.12741 37.9389 3.92085 38.1741 4.05342 38.4301C4.07088 38.459 4.09496 38.4834 4.12366 38.5013C4.15236 38.5192 4.18489 38.53 4.2186 38.533C4.51936 38.4978 4.6492 38.2653 4.79385 38.0358C4.91765 37.8301 5.05323 37.6272 5.17704 37.4095C5.45727 36.9713 5.72571 36.5419 6.00292 36.1037C6.26533 35.6745 6.5365 35.2481 6.7962 34.8126C7.04955 34.3687 7.27662 33.9067 7.51547 33.4568C7.60697 33.2716 7.3947 33.1746 7.28841 33.3363Z" fill="#E13363"/>
<path d="M10.6008 33.3688C10.4033 33.707 10.2059 34.0482 10.0229 34.4072C9.84289 34.7393 9.68979 35.0862 9.52461 35.4247C9.19728 36.1186 8.86694 36.8158 8.52783 37.507C8.45415 37.6596 8.44539 37.9243 8.67217 37.9686C8.90831 37.9978 9.07347 37.7744 9.15289 37.5979C9.42707 36.895 9.69554 36.1951 9.97275 35.504C10.1114 35.151 10.2617 34.8128 10.3828 34.4598C10.5093 34.1072 10.6126 33.7425 10.7219 33.3805C10.7482 33.2896 10.6304 33.307 10.6008 33.3688Z" fill="#E13363"/>
<path d="M15.315 31.0922C14.7784 31.7022 14.3271 32.3818 13.9733 33.1126C13.6263 33.8522 13.3613 34.6273 13.1831 35.4243C13.1212 35.6682 13.2214 35.927 13.5279 35.8917C13.6669 35.8611 13.7927 35.7879 13.8879 35.6825C13.9831 35.577 14.0428 35.4445 14.0588 35.3035C14.1813 34.6034 14.375 33.9176 14.6368 33.2566C14.9095 32.5674 15.24 31.9024 15.6248 31.2687C15.7809 31.0245 15.4714 30.904 15.315 31.0922Z" fill="#E13363"/>
<path d="M36.4999 22.2144C36.9522 22.0058 37.4165 21.8005 37.8641 21.5761C38.3383 21.3395 38.788 21.0731 39.2398 20.8278C39.693 20.5799 40.1346 20.3229 40.5746 20.0813C40.7959 19.958 41.017 19.8409 41.2224 19.7226C41.4424 19.6019 41.7348 19.4893 41.7366 19.2012C41.7346 19.1675 41.7246 19.1347 41.7075 19.1056C41.6904 19.0764 41.6667 19.0518 41.6382 19.0335C41.3554 18.9254 41.1322 19.0712 40.8972 19.2075C40.6918 19.3323 40.4773 19.4493 40.2662 19.5848C39.814 19.8431 39.3764 20.0991 38.9268 20.3588C38.4946 20.6174 38.0559 20.8695 37.6232 21.1349C37.1921 21.4107 36.7759 21.7148 36.3549 22.0026C36.1876 22.1243 36.3305 22.3085 36.4999 22.2144Z" fill="#E13363"/>
<path d="M33.5813 20.6518C33.9137 20.4437 34.2474 20.233 34.5767 19.9998C34.8907 19.7889 35.1878 19.5526 35.4917 19.3293C36.1047 18.8664 36.7218 18.4018 37.3439 17.9468C37.4803 17.8456 37.6113 17.6153 37.431 17.4711C37.2355 17.3358 36.9852 17.4572 36.8327 17.5767C36.2626 18.0723 35.699 18.5678 35.1317 19.0516C34.8446 19.3 34.5539 19.5299 34.2824 19.7865C34.0061 20.0402 33.7449 20.3153 33.4795 20.5853C33.4139 20.6537 33.5264 20.6928 33.5813 20.6518Z" fill="#E13363"/>
<path d="M28.3462 20.4851C29.1055 20.1933 29.8216 19.8004 30.4751 19.3169C31.1268 18.8226 31.7224 18.2588 32.2513 17.6355C32.4197 17.4481 32.4514 17.1726 32.1635 17.0618C32.0262 17.0246 31.8807 17.0312 31.7473 17.0805C31.6139 17.1298 31.4993 17.2195 31.4195 17.337C30.985 17.9003 30.4942 18.418 29.9546 18.8822C29.3922 19.3663 28.7899 19.8022 28.154 20.1853C27.902 20.3293 28.1201 20.5793 28.3462 20.4851Z" fill="#E13363"/>
<path d="M61.6714 34.8893C62.1686 34.8558 62.6758 34.8296 63.1743 34.7797C63.702 34.7279 64.2175 34.6394 64.7273 34.5715C65.2395 34.5016 65.7441 34.4191 66.2416 34.3504C66.4925 34.3142 66.7409 34.2838 66.9752 34.2465C67.2238 34.2122 67.5373 34.2114 67.6423 33.9429C67.6525 33.9107 67.655 33.8766 67.6495 33.8433C67.6439 33.81 67.6306 33.7785 67.6105 33.7513C67.3852 33.5495 67.1245 33.606 66.8562 33.6495C66.6196 33.6928 66.3773 33.7255 66.1317 33.7768C65.6167 33.8567 65.1162 33.9397 64.6033 34.0219C64.1069 34.1092 63.6068 34.1882 63.1075 34.2817C62.6061 34.3856 62.1083 34.521 61.6119 34.6397C61.4121 34.6937 61.4795 34.9166 61.6714 34.8893Z" fill="#E13363"/>
<path d="M59.5062 32.389C59.8912 32.3132 60.2785 32.2354 60.6695 32.1351C61.0384 32.0502 61.4006 31.9354 61.7645 31.8353C62.5029 31.6215 63.2458 31.4079 63.99 31.2048C64.1536 31.159 64.3585 30.9906 64.2419 30.7916C64.1078 30.5956 63.8305 30.6196 63.6452 30.6769C62.9352 30.9363 62.2311 31.1981 61.5278 31.4475C61.1707 31.5771 60.8168 31.6882 60.4712 31.8309C60.1222 31.9693 59.7796 32.1331 59.435 32.2906C59.3492 32.331 59.4402 32.4076 59.5062 32.389Z" fill="#E13363"/>
<path d="M54.6771 30.3661C55.4908 30.3644 56.3005 30.2529 57.0841 30.0345C57.8699 29.8053 58.6283 29.4912 59.3457 29.0977C59.5702 28.9828 59.6986 28.7368 59.4694 28.5307C59.3546 28.447 59.2163 28.4012 59.0741 28.3997C58.9318 28.3981 58.7926 28.441 58.676 28.5223C58.0682 28.8933 57.4242 29.2018 56.7539 29.4428C56.0551 29.6943 55.3363 29.8866 54.6051 30.0175C54.3181 30.0622 54.4321 30.3734 54.6771 30.3661Z" fill="#E13363"/>
<path d="M10.0429 14.3309C6.73703 14.2012 4.10946 16.6953 3.66495 19.9566C3.17995 23.5148 7.24603 25.6024 10.3209 25.4824C13.6903 25.351 15.5148 23.0496 15.8807 19.8137C16.1053 17.8268 15.9467 15.9469 14.019 14.9301C12.4897 14.1893 10.7488 14.0055 9.09782 14.4103C8.62297 14.5065 8.07962 15.0466 8.89274 14.8819C11.5416 14.3455 14.6301 15.3551 14.8003 18.3633C14.9812 21.5635 13.8015 25.4836 9.61604 24.8684C7.64538 24.5787 5.35892 23.1793 4.87804 21.1326C4.28226 18.5969 6.47171 14.7253 9.29606 14.8361C9.5668 14.8467 10.6274 14.3538 10.0429 14.3309Z" fill="#E13363"/>
<path d="M25.4125 27.0367C25.111 23.8758 25.6815 20.6928 27.0622 17.8318C28.7414 14.3889 32.1429 10.2797 36.4513 11.2811C43.7391 12.9749 43.7588 22.0303 43.4453 27.8551C43.7194 27.7103 43.9935 27.5656 44.2677 27.4208C37.8925 27.5414 31.5239 27.3742 25.1621 26.9191C24.8601 26.8975 23.8165 27.4232 24.4267 27.467C30.8713 27.9289 37.3248 28.0992 43.7874 27.9781C44.0317 27.9735 44.5928 27.8594 44.6098 27.5439C44.8499 23.0825 45.0585 18.2173 42.4124 14.3532C40.6039 11.7121 37.454 10.0722 34.2321 10.6514C27.0498 11.9427 23.6841 20.9435 24.248 27.3479C24.2738 27.6407 25.4456 27.4122 25.4125 27.0367Z" fill="#E13363"/>
<path d="M36.5091 0.0561818C33.4846 -0.371879 30.8225 1.69649 29.9338 4.54504C28.8246 8.1005 32.6638 10.7272 35.8542 10.8022C38.9868 10.8758 40.92 8.8394 41.5778 5.89373C41.9405 4.26969 42.1062 2.46949 40.7002 1.30373C39.3218 0.160895 37.4557 -0.117676 35.7298 0.0498526C35.4018 0.0816879 34.4732 0.629149 35.2356 0.555149C37.5423 0.331213 40.4977 1.27468 40.6714 3.93786C40.8562 6.77123 39.2973 10.6985 35.7974 10.2075C33.9152 9.94354 31.7962 8.63616 31.0912 6.8038C30.0698 4.14905 32.8154 0.144318 35.7622 0.561404C36.0372 0.6003 37.103 0.140228 36.5091 0.0561818Z" fill="#E13363"/>
<path d="M70.55 40.2535C72.0908 33.9899 69.815 22.373 61.5415 22.1947C53.0901 22.0126 51.0044 31.4692 50.3458 37.9965C50.3319 38.1333 50.438 38.1614 50.5561 38.1819C56.8792 39.2831 63.2405 40.0964 69.6397 40.6221C69.9424 40.6469 70.9867 40.1245 70.3751 40.0743C65.3869 39.6646 60.4181 39.0815 55.4687 38.3248C54.5865 38.1882 52.7796 38.2723 52.0499 37.7662C51.1153 37.1181 51.7893 35.0729 51.9337 34.1236C52.2118 31.8614 52.8796 29.6641 53.9077 27.6286C55.4729 24.7421 58.4584 22.2028 61.9723 22.8809C64.3107 23.332 66.0838 25.1101 67.3239 27.0489C68.5555 29.0251 69.3738 31.2292 69.7296 33.5288C70.0853 35.8284 69.9712 38.176 69.394 40.4304C69.3115 40.766 70.4667 40.5923 70.55 40.2535Z" fill="#E13363"/>
<path d="M62.5594 12.3006C64.871 12.3304 66.3806 14.0892 67.0245 16.156C68.0701 19.5126 65.4124 22.2006 61.922 21.895C59.6777 21.6986 58.3566 20.1362 57.9667 17.973C57.831 17.1956 57.7777 16.4061 57.8077 15.6175C57.8219 15.2192 57.8574 14.2716 58.1467 13.8438C58.4009 13.1074 59.0549 12.7842 60.1087 12.8743C60.5068 12.5125 61.0013 12.2731 61.5326 12.185C62.064 12.0969 62.6096 12.1638 63.1037 12.3777C63.3878 12.4503 64.4146 11.9975 64.0545 11.9055C61.7236 11.3096 57.8759 11.6097 56.89 14.2768C55.7077 17.4755 57.2422 21.9044 60.8632 22.408C63.3151 22.7489 66.4901 21.7384 67.8937 19.6091C69.9788 16.4459 66.8008 11.8405 63.3063 11.7954C63.0376 11.7919 61.9794 12.2931 62.5594 12.3006Z" fill="#E13363"/>
<path d="M56.2207 10.257C55.1366 8.4477 53.7588 6.76046 51.9282 5.60915C49.9447 4.3617 47.7395 4.1812 45.472 3.7477C45.2331 3.70203 44.7278 3.90914 44.8425 4.21976C45.0985 4.93671 45.4859 5.60313 45.986 6.18705C46.2696 6.52114 47.1556 6.17201 46.846 5.77383L45.3336 3.82936L45.118 4.32511C45.7399 4.03555 46.3901 3.80656 47.0588 3.64149C47.6464 3.4953 47.462 2.82805 46.8741 2.97431C46.1211 3.16046 45.3891 3.41923 44.6894 3.74677C44.5143 3.82814 44.3288 4.05621 44.4737 4.24252C44.9778 4.89071 45.4819 5.5389 45.986 6.18705C46.2727 6.04932 46.5594 5.91158 46.846 5.77383C46.3848 5.24004 46.0256 4.63097 45.7852 3.97516L45.1556 4.44722C47.4395 4.88387 49.6565 5.06765 51.6085 6.42375C53.1979 7.52799 54.388 9.04677 55.3607 10.6702C55.5873 11.0484 56.4797 10.6892 56.2207 10.257Z" fill="#E13363"/>
<path d="M25.2998 1.97927C19.8575 2.7986 15.6444 6.86854 14.9751 12.3536C15.2688 12.2754 15.5625 12.1972 15.8562 12.119C15.3259 11.2535 14.948 10.3044 14.7388 9.31265L13.8251 9.556C14.1098 10.3666 14.3525 12.6703 15.4279 12.7984C15.7241 12.7953 16.0099 12.6896 16.2361 12.4996C17.1029 11.9598 17.9147 11.0458 18.6859 10.3751C19.0927 10.0212 18.1942 9.9632 17.9416 10.1828C17.6519 10.4348 16.1277 12.1289 15.6867 12.0113C15.3885 11.9317 14.8596 9.65658 14.7388 9.31265C14.6172 8.96626 13.7462 9.19507 13.8251 9.556C14.0498 10.5942 14.4512 11.5867 15.012 12.4906C15.169 12.7479 15.8596 12.5304 15.8931 12.2559C16.5006 7.27715 20.1433 3.30061 25.1908 2.54068C25.6516 2.47133 25.9276 1.88478 25.2998 1.97927Z" fill="#E13363"/>
<path d="M26.7829 41.0157C29.5956 42.7608 32.9205 43.5493 36.24 43.2585C39.5595 42.9678 42.6874 41.614 45.1367 39.408L44.1037 39.3503C43.8959 40.5675 43.4769 41.7412 42.8648 42.8209L43.9325 42.8817C44.2658 42.0673 45.8826 39.6368 45.2725 38.7846C45.1164 38.5665 44.8077 38.5718 44.5798 38.518C43.4174 38.2438 41.7064 38.5137 40.5232 38.517C40.054 38.5183 39.3341 39.212 40.0992 39.2098C40.5558 39.2085 43.719 38.8675 44.0104 39.1987C44.5155 39.773 43.1028 42.2394 42.8648 42.8209C42.6402 43.3694 43.7406 43.223 43.9325 42.8817C44.5799 41.7468 45.0237 40.5121 45.2447 39.231C45.3335 38.7289 44.3814 39.0239 44.2117 39.1734C39.535 43.2926 32.9583 43.7146 27.6764 40.4419C27.3257 40.2246 26.2919 40.7115 26.7829 41.0157Z" fill="#E13363"/>
</svg>
