<svg width="50" height="44" viewBox="0 0 50 44" fill="none" xmlns="http://www.w3.org/2000/svg">
<path d="M22.2843 38.5042C23.4075 38.1039 24.553 37.7694 25.7149 37.5024C28.0431 36.9668 30.4156 37.0236 32.7629 36.6973C33.1276 36.6627 33.4697 36.5044 33.7327 36.2485C33.9957 35.9926 34.164 35.6544 34.2098 35.2897C34.3879 34.4936 34.2676 33.6595 33.8717 32.9468C33.8653 32.7851 33.8371 32.6202 33.7074 32.6549C28.5646 33.9486 23.4181 35.2611 18.307 36.7954C18.2817 36.8051 18.2691 36.9064 18.3131 36.8937C23.4466 35.838 28.5487 34.57 33.6476 33.2828C33.8077 33.4916 33.9192 33.7337 33.974 33.9914C34.0288 34.249 34.0255 34.5157 33.9643 34.7719C33.9032 35.0281 33.7856 35.2674 33.6204 35.4721C33.4552 35.6769 33.2463 35.8419 33.0093 35.9552C32.6819 36.0115 32.3493 36.0318 32.0175 36.0156C31.2938 36.0347 30.5705 36.0756 29.8533 36.1487C28.5562 36.2727 27.268 36.4771 25.996 36.7606C24.6312 37.0741 23.2871 37.4721 21.9715 37.9527C21.2954 38.2062 20.6478 38.5455 19.9781 38.7831C19.6865 38.9408 19.3522 39.0009 19.0241 38.9545C18.5704 38.7186 18.218 38.3248 18.033 37.8467C17.848 37.3687 17.8432 36.8394 18.0194 36.3581C18.0288 36.323 18.0194 36.2376 17.9877 36.2659C17.8232 36.5376 17.7237 36.8439 17.6969 37.1607C17.6701 37.4775 17.7167 37.7962 17.8331 38.0919C17.9245 38.5839 18.1989 39.0226 18.6007 39.3191C18.6735 40.007 18.7427 40.6757 18.8281 41.3669C18.8346 41.4273 18.8757 41.4873 18.907 41.4812C19.0051 41.4685 19.1092 41.4558 19.2134 41.4399C19.2926 42.2482 19.359 43.0693 19.4411 43.8808C19.4473 43.9539 19.4693 44.011 19.5201 43.9983C22.8407 42.8625 26.2284 41.9349 29.6638 41.2211C30.5136 41.0529 31.3602 40.9043 32.2132 40.7741C32.8482 40.6696 33.6696 40.7932 34.2224 40.2891C34.4962 39.945 34.6539 39.5224 34.6726 39.0824C34.6913 38.6425 34.5701 38.2079 34.3266 37.8416C34.4246 37.7972 34.4845 37.6102 34.4563 37.4326C34.3868 37.0142 34.3204 36.599 34.2415 36.1678C34.172 35.8094 33.9035 36.136 33.9633 36.4276C34.0138 36.7353 34.0675 37.0333 34.1183 37.3375C31.538 38.2736 28.9063 39.06 26.2361 39.693C24.9314 40.0005 23.6077 40.2638 22.2843 40.492C21.5797 40.6189 20.8564 40.7552 20.1454 40.8757C19.9717 40.8978 19.3968 41.1387 19.2325 41.015C18.8757 40.7614 18.8029 39.9943 18.7113 39.3856C18.8635 39.4733 19.0326 39.5273 19.2072 39.544C20.2874 39.3883 21.3302 39.0359 22.2843 38.5042ZM34.1435 37.9082C34.1309 37.9654 34.1183 38.0225 34.1496 38.0572C35.0438 39.037 33.897 40.0482 33.3946 40.1401C33.0947 40.1875 32.7881 40.2225 32.4943 40.2699C31.8024 40.3777 31.0982 40.4984 30.3968 40.6283C29.0573 40.8818 27.7147 41.1737 26.391 41.5159C25.0547 41.8584 23.7374 42.2294 22.4202 42.6508C21.7376 42.8761 21.0586 43.1105 20.3825 43.3643C20.1014 43.4689 19.7885 43.8016 19.5262 43.2881C19.3999 42.6757 19.3322 42.0526 19.324 41.4273C24.3835 40.8373 29.357 39.6563 34.1435 37.9082Z" fill="#E13363"/>
<path d="M33.0411 2.29348C23.0267 -3.43827 10.1184 4.85193 8.76947 15.6814C8.49212 18.1024 8.77608 20.555 9.59918 22.8477C10.4223 25.1403 11.7622 27.2111 13.5144 28.8983C13.4699 28.9807 13.442 29.0712 13.4323 29.1645C13.4514 29.3073 13.6409 29.2249 13.6979 29.1645C13.7018 29.1439 13.7105 29.1244 13.7231 29.1077C14.3757 29.7258 15.0807 30.2858 15.83 30.7815L15.8365 30.8133C16.0371 30.9161 16.2106 31.065 16.3429 31.2479C16.4752 31.4308 16.5626 31.6425 16.598 31.8657C16.7367 32.3981 16.803 32.9594 16.8978 33.4918C16.9958 34.0466 17.1097 34.6015 17.2265 35.1469C17.3001 35.7096 17.4237 36.2646 17.5959 36.8051C17.735 37.1379 18.2374 36.6908 18.2281 36.4626C18.1575 35.8349 18.0381 35.2137 17.8709 34.6047C17.9769 34.4623 18.0522 34.2994 18.0922 34.1262C18.152 33.9233 18.2216 33.7204 18.2879 33.511C18.4302 33.0799 18.5503 32.6394 18.6797 32.2017C18.9608 31.3624 19.1959 30.5084 19.3842 29.6433C19.4029 29.5609 19.2862 29.5894 19.2609 29.6433C18.9119 30.4801 18.6051 31.334 18.3416 32.2017C18.1899 32.6394 18.0353 33.0734 17.9026 33.511C17.8457 33.6792 17.792 33.847 17.735 34.0119C17.6435 33.5681 17.5455 33.1244 17.4413 32.6773C17.3498 32.2175 17.2034 31.7704 17.0052 31.3457C17.4067 30.1728 17.792 28.9902 18.1898 27.8108C18.2025 27.7854 18.1646 27.7887 18.1459 27.8172C17.7415 28.9362 17.333 30.0563 16.9202 31.1778C16.8114 30.9918 16.6496 30.8426 16.4557 30.7497C16.4874 30.6737 16.4935 30.5974 16.4113 30.55C16.1904 30.3945 16.0008 30.2173 15.7986 30.0585C15.8251 28.8877 16.0683 27.7321 16.5158 26.6505C16.5346 26.5934 16.4621 26.5999 16.443 26.6317C15.9628 27.6387 15.6421 28.7147 15.4923 29.8209C14.971 29.3792 14.4762 28.907 14.0104 28.4068C14.0359 28.3561 14.0421 28.3149 14.0705 28.2643L14.4086 27.3228C14.6298 26.7076 14.8573 26.0769 15.075 25.449C15.1258 25.3192 14.955 25.3254 14.9045 25.4205C14.6486 26.0577 14.396 26.6856 14.1336 27.3196C14.0168 27.589 13.9062 27.8711 13.7955 28.15C13.4478 27.7825 13.1189 27.3974 12.8102 26.9962C12.8322 26.9011 12.8765 26.7934 12.8891 26.6982C12.9302 26.5174 12.9742 26.3366 13.0218 26.1655C13.1165 25.8042 13.2366 25.4458 13.3598 25.1004C13.6308 24.4037 13.9739 23.7375 14.3833 23.1126C14.4464 23.0081 14.317 22.951 14.2475 23.0302C13.7937 23.6649 13.4042 24.3435 13.0848 25.0559C12.9222 25.4066 12.7829 25.7677 12.6678 26.1369C12.6141 26.2924 12.5572 26.4476 12.5132 26.6093C12.1314 26.0521 11.7822 25.4732 11.4674 24.8754C11.9662 23.3247 12.6775 21.8512 13.5808 20.4971C13.6345 20.3987 13.5494 20.3195 13.4766 20.4117C12.5596 21.6549 11.8116 23.0152 11.2526 24.4566C10.8882 23.7115 10.583 22.9388 10.3397 22.1455C11.1522 20.2258 12.1212 18.3766 13.2366 16.6167C13.3061 16.5121 13.1512 16.4391 13.0975 16.5436C11.9766 18.1321 11.0017 19.8193 10.1847 21.5846C9.91274 20.5556 9.73411 19.504 9.65101 18.4428V18.4366C9.89751 18.1639 10.1375 17.8785 10.3649 17.5994C10.7502 17.1556 11.1293 16.7086 11.5085 16.2615C12.27 15.3675 13.0323 14.4756 13.7955 13.5859C13.8146 13.5606 13.7894 13.5385 13.7703 13.5541C12.9994 14.4166 12.2065 15.2883 11.4548 16.1509C11.0756 16.5722 10.6934 16.996 10.308 17.4221C10.0997 17.6532 9.87842 17.8912 9.65101 18.1227C9.59284 15.7115 10.0889 13.3194 11.1008 11.1317C12.1127 8.94405 13.6132 7.01973 15.4858 5.50801C17.5428 3.75906 20.0207 2.58171 22.6725 2.09334C25.3242 1.60496 28.0572 1.82261 30.599 2.72459C32.7498 3.65479 34.6388 5.10273 36.099 6.94022C37.5592 8.77772 38.5455 10.9481 38.9706 13.2593C39.4131 16.1426 39.1458 19.0907 38.1921 21.8465C37.2384 24.6023 35.6272 27.082 33.4991 29.0694C33.4137 29.1578 33.348 29.2635 33.3065 29.3795C33.2651 29.4954 33.2488 29.6189 33.2587 29.7417C33.1444 30.0135 33.071 30.301 33.0411 30.5945C32.9701 31.418 33.1402 32.2443 33.5305 32.9721C33.6159 33.1244 33.7929 32.9056 33.7802 32.7978C33.7453 32.4173 33.6285 32.0401 33.5781 31.6531C33.4997 31.2926 33.5171 30.9176 33.6285 30.5659C33.7224 30.3879 33.8416 30.2245 33.9824 30.0809C34.0077 30.065 34.0264 30.0744 34.0581 30.0459C36.0801 28.1782 37.6974 25.9129 38.8094 23.391C39.9214 20.869 40.5043 18.1444 40.5218 15.3866C40.477 12.7481 39.7676 10.1638 38.4596 7.87446C37.1516 5.58512 35.2875 3.66521 33.0411 2.29348Z" fill="#E13363"/>
<path d="M20.0665 32.2205C19.6909 33.7997 19.1133 35.3236 18.3481 36.754C18.3005 36.8557 18.2817 37.0047 18.3985 37.0491C18.5376 37.09 18.6605 36.9728 18.7239 36.8745C19.5107 35.4185 20.0589 33.845 20.3476 32.2143C20.3886 31.9923 20.1075 32.04 20.0665 32.2205Z" fill="#E13363"/>
<path d="M30.7601 15.0347C30.564 14.5097 30.2415 14.0417 29.8213 13.6723C29.4011 13.3029 28.8962 13.0437 28.3519 12.9178C27.8075 12.7919 27.2406 12.8032 26.7016 12.9508C26.1627 13.0983 25.6685 13.3775 25.2633 13.7634C25.1296 13.8876 25.006 14.0222 24.8936 14.166C24.2111 13.7137 23.3886 13.5246 22.578 13.6336C21.9249 13.7719 21.3174 14.074 20.8121 14.5117C19.9332 14.165 18.9577 14.1556 18.0723 14.4855C17.187 14.8153 16.4539 15.4612 16.0134 16.2995C14.2064 19.7646 18.1963 21.9936 19.8866 24.4283C22.1061 27.7492 23.0106 31.7818 22.4231 35.7367C22.4202 35.8347 22.5589 35.7873 22.578 35.7142C23.4524 31.9013 22.8098 27.8964 20.7868 24.5517C20.3455 23.7965 19.8346 23.0843 19.2609 22.4247C18.3531 21.5655 17.5252 20.6253 16.7872 19.6156C16.4442 19.1069 16.2651 18.5048 16.2744 17.8907C16.2836 17.2765 16.4806 16.6801 16.8388 16.182C17.1969 15.6839 17.6989 15.3083 18.2767 15.1059C18.8546 14.9036 19.4805 14.8843 20.0696 15.0506C20.1174 15.0645 20.1631 15.0847 20.2055 15.1107C19.3589 16.1031 18.9986 17.3964 20.1266 18.3382C20.2955 18.4836 20.4927 18.5922 20.7057 18.6568C20.9187 18.7215 21.1428 18.7408 21.3637 18.7137C21.5846 18.6865 21.7974 18.6134 21.9885 18.4991C22.1797 18.3847 22.345 18.2317 22.4739 18.0496C22.7045 17.6241 22.791 17.1348 22.7203 16.6556C22.6497 16.1765 22.4256 15.7333 22.0821 15.3931C21.8537 15.1449 21.5934 14.9285 21.308 14.7494C21.7847 14.4404 22.3388 14.2732 22.9062 14.2671C23.4736 14.2609 24.0312 14.4161 24.5144 14.7146C24.1642 15.2679 24.0085 15.923 24.0722 16.5754C24.1955 17.4915 25.1588 18.2969 26.0151 17.6185C26.8174 16.978 26.4069 15.7703 25.911 15.0792C25.7348 14.8326 25.5265 14.6107 25.2918 14.4195C25.596 14.0803 25.9748 13.8169 26.3982 13.6503C26.8216 13.4837 27.2778 13.4184 27.7306 13.4597C28.1835 13.5009 28.6206 13.6476 29.0072 13.888C29.3937 14.1283 29.7191 14.4558 29.9575 14.8445C31.3162 17.1335 29.1487 18.706 28.0337 20.459C25.3044 24.7896 26.9849 30.0682 28.5519 34.478C28.7444 35.0072 29.5218 34.4589 29.3668 34.034C27.6322 30.4939 27.0912 26.4839 27.8254 22.6084C28.4942 21.0897 29.3506 19.6614 30.3745 18.357C30.7004 17.8752 30.9056 17.3216 30.9727 16.7432C31.0398 16.1649 30.9669 15.5788 30.7601 15.0347ZM22.1232 17.3617C22.0403 17.5852 21.8802 17.7714 21.6721 17.8866C21.464 18.0018 21.2217 18.0384 20.989 17.9895C20.7038 17.8818 20.464 17.6792 20.3097 17.4156C20.1534 17.0683 20.1033 16.6823 20.1657 16.3064C20.2281 15.9306 20.4002 15.5818 20.6603 15.3041C21.4565 15.7194 22.3885 16.5248 22.1232 17.3617ZM25.3105 16.6358C24.7544 16.9559 24.527 16.7595 24.6251 16.0683C24.6298 15.8582 24.6649 15.6499 24.7292 15.4499C24.723 15.3674 24.7378 15.2846 24.7722 15.2093C24.8065 15.1341 24.8593 15.0688 24.9256 15.0195C24.9918 14.9703 25.0695 14.9387 25.1512 14.9277C25.233 14.9166 25.3162 14.9266 25.3931 14.9566C25.4699 14.9866 25.538 15.0356 25.5908 15.0991C25.6437 15.1627 25.6797 15.2386 25.6954 15.3198C25.7112 15.4011 25.7062 15.485 25.6808 15.5638C25.6555 15.6426 25.6107 15.7136 25.5506 15.7703C25.8825 16.3504 26.072 16.4741 25.3105 16.6358Z" fill="#E13363"/>
<path d="M9.79301 1.60893C7.96952 2.93216 6.53465 4.72362 5.63904 6.79528C5.19052 7.82597 4.87313 8.90926 4.69442 10.0196C4.60526 10.5586 4.55038 11.1028 4.5301 11.6489C4.5301 12.1151 4.41298 12.952 4.71318 13.326C5.00076 13.6938 5.46498 13.3198 5.57561 12.9806C5.64541 12.4719 5.63803 11.9556 5.55365 11.4493C5.53961 10.9358 5.56174 10.4221 5.61994 9.91177C5.79691 8.37106 6.27843 6.88128 7.03625 5.52963C7.79407 4.17797 8.81298 2.99161 10.0333 2.04003C10.3332 1.81182 10.1501 1.3648 9.79301 1.60893Z" fill="#E13363"/>
<path d="M6.33714 0.153327C4.31826 1.69861 2.68597 3.69477 1.56982 5.98344C0.348484 8.25287 -0.178923 10.8333 0.0535988 13.402C0.11668 13.8013 0.533663 13.8805 0.852949 13.7633C1.04745 13.6799 1.21668 13.5467 1.34365 13.377C1.47061 13.2072 1.55084 13.0069 1.57628 12.7962C1.62032 11.6848 1.73431 10.5774 1.91757 9.48041C2.12589 8.39689 2.44447 7.33768 2.86831 6.31944C3.75111 4.25645 5.09979 2.42768 6.8078 0.977571C7.33541 0.521134 6.99739 -0.353753 6.33714 0.153327Z" fill="#E13363"/>
<path d="M42.0127 6.94739C41.8707 6.7604 41.5641 7.04575 41.6747 7.22008C42.8656 9.07921 43.5847 11.2027 43.7693 13.405C43.8693 14.4758 43.8332 15.555 43.6619 16.6166C43.3531 17.6473 43.1457 18.706 43.0427 19.7773C43.0489 20.2149 43.507 20.1516 43.7282 19.8851C44.39 18.96 44.7538 17.8537 44.7705 16.715C44.8857 15.5578 44.8581 14.3908 44.6883 13.2404C44.3564 10.9451 43.4342 8.77619 42.0127 6.94739Z" fill="#E13363"/>
<path d="M46.1007 5.17835C45.9648 5.042 45.6963 5.34295 45.8005 5.4952C47.4054 7.73876 48.3361 10.3968 48.4826 13.1546C48.581 14.486 48.4821 15.8247 48.1889 17.1269C47.8887 18.4806 47.2349 19.6665 46.8176 20.9693C46.5238 21.8886 47.6076 21.9425 48.0562 21.3877C49.701 18.85 50.3347 15.7844 49.8316 12.7995C49.4458 9.91989 48.1361 7.24466 46.1007 5.17835Z" fill="#E13363"/>
</svg>
