<svg width="53" height="44" viewBox="0 0 53 44" fill="none" xmlns="http://www.w3.org/2000/svg">
<path d="M40.0631 13.8636C39.014 11.9178 37.9409 9.98506 36.8437 8.06526C35.9167 6.31143 34.8858 4.61449 33.7567 2.98346C33.9496 2.59926 33.7005 2.26104 33.2961 2.37467C33.2645 2.33591 33.2372 2.29125 33.2098 2.25382C33.1422 2.17763 33.0358 2.2942 33.0673 2.37039C33.078 2.40065 33.092 2.4296 33.1091 2.45674C33.0775 2.47399 33.0558 2.46398 33.0241 2.48991C23.8163 10.4169 14.5524 18.3092 5.57341 26.4982L5.52875 26.4967C5.50482 26.4979 5.48138 26.504 5.45987 26.5145C5.43836 26.525 5.41922 26.5398 5.40361 26.558C5.38799 26.5762 5.37624 26.5973 5.36904 26.6202C5.36185 26.643 5.35938 26.6671 5.36178 26.6909C5.22517 26.8132 5.07971 26.9328 4.94309 27.0594C4.84229 27.1515 4.93145 27.2738 5.04375 27.1876C5.19775 27.0638 5.34174 26.9385 5.49279 26.8147C8.61358 27.0621 11.7137 27.5237 14.7711 28.1963C16.2621 28.5202 17.7502 28.8958 19.2153 29.329C20.6818 29.7621 22.1167 30.3752 23.5875 30.7581C23.6235 30.7594 23.6594 30.7551 23.694 30.7451C24.8108 32.3643 26.0729 33.8797 27.2545 35.4598C28.4821 37.1062 29.655 38.8001 30.8697 40.4653C31.0626 40.7373 31.4525 40.4825 31.5447 40.2019C31.5793 40.2926 31.6008 40.3876 31.631 40.4812C31.8109 40.9805 32.5421 40.4682 32.4053 40.0638C32.2902 39.7269 32.1981 39.383 32.0902 39.042C32.8456 37.3783 33.6074 35.7185 34.3755 34.0624C34.8347 33.0837 35.302 32.1118 35.7773 31.1467C36.3117 30.2528 36.7589 29.3096 37.1129 28.3301C39.7781 27.7113 42.4277 27.0421 45.0801 26.4031C45.1276 26.5067 45.1752 26.6075 45.2226 26.7096C45.4917 27.3041 46.4762 26.4405 46.2113 25.8909C44.2541 21.8381 42.2047 17.829 40.0631 13.8636ZM19.6701 28.5216C18.1302 28.1086 16.5629 27.7545 14.9913 27.4609C11.9741 26.9105 8.9186 26.5953 5.85252 26.5184C14.9583 19.1857 23.8365 11.5639 32.7291 3.97792C31.975 5.84319 31.3893 7.79174 30.7388 9.68855C29.9256 12.0517 29.1499 14.4249 28.3813 16.8082C27.6474 19.0922 26.9115 21.3776 26.1737 23.6644C25.5117 25.7311 24.6598 27.8496 24.1992 29.9881C24.1805 29.9766 24.1876 29.9565 24.169 29.9449C22.7143 29.3386 21.2088 28.8623 19.6701 28.5216ZM30.199 26.0319C28.7397 26.6824 27.2905 27.3371 25.8499 28.028C26.0499 27.3948 26.2486 26.7558 26.4328 26.1182C26.4356 26.1182 26.4328 26.1268 26.4413 26.124C27.1984 25.7613 27.9654 25.4086 28.7138 25.0187C29.3845 24.666 30.0709 24.3293 30.7359 23.9594C30.7388 23.9681 30.7546 23.9651 30.7661 23.9709C30.641 24.6775 30.5013 25.3756 30.3675 26.0736C30.3358 26.0247 30.2911 25.993 30.199 26.0319ZM30.3257 26.298C30.2666 26.5873 30.2192 26.8838 30.1573 27.1731C30.1011 27.4523 30.035 27.7343 29.976 28.0136C29.5773 28.1313 29.1881 28.279 28.8116 28.4554C28.3151 28.6728 27.8172 28.9015 27.3322 29.1448C26.4834 29.5582 25.6691 30.039 24.8972 30.5826C25.2419 29.7997 25.5441 28.9988 25.8023 28.1834C27.3007 27.6034 28.7844 26.986 30.2638 26.3557C30.2878 26.3404 30.3088 26.3209 30.3257 26.298ZM28.6519 24.7309C27.9065 25.1353 27.1898 25.5799 26.4658 26.0089C26.6198 25.4792 26.7738 24.9453 26.935 24.4185C27.0114 24.184 27.0833 23.9464 27.1567 23.709C27.7223 23.4125 28.2807 23.106 28.865 22.8383C29.2664 22.6584 29.6665 22.4901 30.0709 22.3389C30.4178 22.2051 30.7603 22.0856 31.0986 21.936C31.0209 22.4353 30.9503 22.9405 30.8697 23.4399C30.8611 23.4716 30.8524 23.5018 30.8467 23.5348C30.1041 23.9047 29.3817 24.3336 28.6519 24.7309ZM30.0033 22.0194C29.6019 22.1834 29.2037 22.3629 28.8089 22.5577C28.2705 22.8185 27.7477 23.1102 27.243 23.4312C27.4158 22.87 27.5913 22.3102 27.7625 21.7488C27.8618 21.7216 27.9654 21.6927 28.049 21.6625C28.2316 21.593 28.4099 21.5128 28.5829 21.4221C28.9802 21.2122 29.3659 20.9811 29.7385 20.7299C30.1046 20.4905 30.4555 20.2286 30.7891 19.9456C31.0309 19.7369 31.2798 19.5095 31.5059 19.2721C31.3893 20.0622 31.2655 20.8479 31.146 21.6395C30.7535 21.7281 30.3707 21.8553 30.0033 22.0194ZM30.638 19.678C30.32 19.9571 29.9962 20.2219 29.6608 20.468C29.3083 20.7199 28.9427 20.953 28.5685 21.1689C28.3785 21.2783 28.1856 21.3862 27.9986 21.4999C27.9497 21.5329 27.8676 21.5819 27.8014 21.6295C28.046 20.8437 28.2898 20.0564 28.5325 19.2677C29.1528 18.9152 29.7673 18.5496 30.4006 18.2113C30.8496 17.9769 31.3072 17.771 31.7678 17.5608C31.7159 17.9724 31.6368 18.3841 31.5793 18.7971C31.2496 19.0677 30.9618 19.4016 30.638 19.678ZM30.3444 17.9408C29.7351 18.2792 29.1494 18.6585 28.5915 19.0763C28.7757 18.4849 28.9571 17.8962 29.1413 17.3062L29.1499 17.2875C29.5212 17.0615 29.9112 16.8542 30.2666 16.5953C30.6121 16.3447 30.959 16.0843 31.2915 15.8166C31.5519 15.6179 31.8008 15.4046 32.0369 15.1775C31.9837 15.7432 31.9448 16.3117 31.8714 16.8744C31.8584 16.9795 31.8384 17.0831 31.8239 17.1852C31.3187 17.4183 30.828 17.6702 30.3444 17.9408ZM31.1518 15.5676C30.8367 15.8195 30.5172 16.0656 30.1932 16.306C29.8782 16.5376 29.5543 16.7521 29.242 16.9794C29.3845 16.5031 29.527 16.0267 29.6723 15.5532C29.8839 15.4151 30.1011 15.2798 30.3055 15.1316C30.52 14.9718 30.7331 14.8163 30.9475 14.6581C31.1135 14.5471 31.2721 14.4254 31.4223 14.2939C31.6065 14.1818 31.7822 14.068 31.9692 13.9614C32.0341 13.9255 32.0973 13.8925 32.1649 13.8565C32.1377 14.1831 32.0973 14.507 32.07 14.8336C31.7448 15.0534 31.4378 15.2988 31.1518 15.5676ZM31.9362 13.6751C31.6814 13.8191 31.4396 13.9816 31.1994 14.1456C31.0784 14.2307 30.9862 14.3443 30.8726 14.4364C30.6595 14.5962 30.4538 14.7531 30.2437 14.9142C30.0681 15.0467 29.9041 15.1963 29.7357 15.336C29.9616 14.5861 30.1904 13.8378 30.4193 13.085C30.7129 12.8806 31.0122 12.6778 31.303 12.4605C31.5231 12.295 31.7433 12.128 31.9635 11.9595C32.103 11.8546 32.2427 11.7394 32.3793 11.6257C32.3319 12.2633 32.2513 12.9008 32.1981 13.5398C32.1117 13.5859 32.0167 13.6234 31.9362 13.6751ZM31.8613 11.7812C31.6541 11.9538 31.444 12.1222 31.2381 12.292C30.9675 12.5137 30.7099 12.7455 30.4509 12.9727C30.7014 12.1337 30.9705 11.2962 31.2122 10.4528C31.2568 10.2988 31.3043 10.1433 31.3489 9.98934C31.495 9.96475 31.6382 9.9257 31.7765 9.87277C32.0405 9.77538 32.2964 9.65752 32.542 9.52026C32.5031 10.1333 32.447 10.7464 32.4053 11.3552C32.2156 11.4861 32.0339 11.6284 31.8613 11.7812ZM31.7735 9.54471C31.6627 9.58922 31.5533 9.63108 31.444 9.67559C31.906 8.12141 32.391 6.55559 32.7982 4.97533C32.745 6.36268 32.6514 7.74281 32.5636 9.12869C32.3111 9.28717 32.047 9.42624 31.7735 9.54471ZM24.1963 31.1006C24.31 31.1335 24.4316 31.1265 24.5408 31.0807C24.65 31.0348 24.7402 30.953 24.7964 30.8487C24.8138 30.8128 24.8223 30.7725 24.8382 30.7336C25.6729 30.3033 26.4889 29.8385 27.3379 29.4413C27.7957 29.2225 28.2562 29.0225 28.7253 28.8311C29.0996 28.68 29.5155 28.5475 29.8925 28.3805C29.7961 28.8 29.7217 29.2241 29.6695 29.6513C29.4766 29.7117 29.2838 29.7666 29.0937 29.8255C29.052 29.8457 29.019 29.9363 29.0909 29.9248C29.2722 29.8989 29.4564 29.86 29.6435 29.8283C29.6349 29.9291 29.6076 30.027 29.5989 30.1263C29.2751 30.2673 28.9656 30.4573 28.6519 30.6185C28.2835 30.8128 27.905 30.9955 27.5251 31.1712C26.7652 31.5209 25.9895 31.8504 25.2209 32.1742C24.8813 31.8116 24.5517 31.4445 24.1963 31.1006ZM25.2526 32.2103C26.0317 31.9996 26.7933 31.7291 27.5308 31.4014C27.9093 31.2344 28.2864 31.0546 28.6606 30.8704C29.0146 30.7124 29.3545 30.5246 29.6767 30.309C29.6825 30.3148 29.6825 30.3292 29.691 30.332C29.6853 30.9323 29.7327 31.5324 29.7746 32.1297C29.2362 32.3686 28.7138 32.6606 28.1943 32.9342C27.6704 33.2105 27.1639 33.5011 26.6587 33.8048C26.1895 33.2709 25.7406 32.7268 25.2526 32.2103ZM27.6863 34.9691C27.3798 34.5964 27.0473 34.2481 26.7293 33.8825C27.2171 33.6825 27.7006 33.4753 28.1813 33.2464C28.7167 32.9888 29.2722 32.7413 29.7918 32.4447C29.8667 33.2607 29.9933 34.0725 30.14 34.8799C30.0003 34.9446 29.8643 35.0171 29.7327 35.0971C29.5601 35.2022 29.3902 35.3117 29.2132 35.4211C28.9599 35.5836 28.7081 35.7506 28.4606 35.9261C28.2001 35.6081 27.9497 35.2843 27.6863 34.9691ZM29.5874 37.4042C29.6076 37.3985 29.6248 37.4115 29.6349 37.4042C29.7688 37.2977 29.9041 37.1912 30.0407 37.0847C30.1041 37.0329 30.1717 36.9825 30.2379 36.9292C30.2725 36.9033 30.3027 36.8789 30.333 36.8529C30.3751 36.8196 30.4137 36.782 30.448 36.7408C30.4669 36.7186 30.4795 36.692 30.4848 36.6634C30.4901 36.6349 30.4879 36.6055 30.4783 36.5781C30.4634 36.5568 30.4407 36.5421 30.4152 36.5373C30.3896 36.5324 30.3632 36.5378 30.3415 36.5521C30.2958 36.5781 30.252 36.6075 30.2106 36.64C30.1775 36.6659 30.1515 36.6933 30.1213 36.7191C30.0566 36.7767 29.9933 36.8343 29.9256 36.8933C29.7976 37.0069 29.6723 37.1222 29.5399 37.2358C29.5212 37.2502 29.5298 37.2804 29.5183 37.3064C29.1773 36.8731 28.8592 36.4241 28.5123 35.9952C28.7729 35.8758 29.032 35.7621 29.2809 35.6355C29.4536 35.5476 29.6248 35.4628 29.7918 35.3735C29.9303 35.3035 30.0643 35.2252 30.1932 35.139C30.4971 36.7137 30.9049 38.2666 31.4138 39.7875C30.8409 38.9671 30.2106 38.19 29.5874 37.4042ZM35.1715 30.9438C34.695 31.9497 34.2272 32.96 33.7682 33.9746C33.0947 35.48 32.4974 37.0069 31.9362 38.5512C31.123 35.8427 30.5791 33.0837 29.9703 30.3205C30.0587 30.2825 30.1324 30.2169 30.1804 30.1335C30.2351 29.9997 30.2696 29.8485 30.317 29.7104C32.3823 29.3737 34.4346 28.9361 36.4782 28.4726C35.9804 29.2619 35.5436 30.088 35.1715 30.9438ZM30.4221 29.4154C30.9524 27.5777 31.3474 25.7037 31.6037 23.8083C32.0024 21.6165 32.2989 19.403 32.5449 17.1881C32.5565 17.1839 32.5636 17.1752 32.5752 17.1752C32.7003 17.1133 32.7378 16.8442 32.5723 16.8744C33.0456 12.5066 33.2302 8.11239 33.1249 3.72032C33.1336 3.68436 33.1479 3.64839 33.1536 3.61391C33.2674 3.52033 33.3768 3.42527 33.4891 3.33037C34.2863 5.11489 35.3427 6.83898 36.258 8.54731C37.3129 10.5045 38.3424 12.4743 39.3465 14.4566C41.2216 18.1494 43.0168 21.8822 44.7319 25.6548C39.9466 26.8277 35.1138 27.9172 30.4221 29.4154Z" fill="#E13363"/>
<path d="M41.5958 21.808C40.872 22.227 40.1711 22.6844 39.4961 23.1781C38.8126 23.6357 38.1261 24.092 37.4467 24.5539L33.217 27.4294C33.1566 27.4698 33.1781 27.6036 33.2617 27.5474C34.6892 26.635 36.115 25.7202 37.5389 24.8029C38.2368 24.3511 38.9349 23.8919 39.6358 23.4358C40.3427 23.014 41.0267 22.5552 41.6851 22.0612C41.806 21.9663 41.783 21.7102 41.5958 21.808Z" fill="#E13363"/>
<path d="M39.0917 19.0693C38.5513 19.4272 38.0323 19.8165 37.5374 20.235C37.0149 20.6436 36.4916 21.0504 35.9673 21.4553C34.9094 22.2843 33.8459 23.1128 32.7767 23.9408C32.7119 23.9912 32.7565 24.0977 32.8356 24.0373C33.8905 23.2428 34.9464 22.4479 36.0032 21.6525C36.5141 21.2697 37.0255 20.8878 37.5374 20.507C38.0996 20.1159 38.6401 19.6945 39.1566 19.2448C39.2285 19.1743 39.2227 18.9872 39.0917 19.0693Z" fill="#E13363"/>
<path d="M39.0298 15.7317C37.1489 17.1594 35.2751 18.5913 33.4242 20.0522C33.3912 20.0795 33.4099 20.1298 33.4545 20.1039C35.37 18.7353 37.2582 17.3407 39.1478 15.9361C39.2874 15.8268 39.1953 15.6066 39.0298 15.7317Z" fill="#E13363"/>
<path d="M37.7734 13.5155C36.4537 14.3919 35.2117 15.3835 33.9554 16.3435C33.9294 16.365 33.9466 16.3995 33.9741 16.3808C35.2751 15.5044 36.602 14.6495 37.8353 13.6867C37.9187 13.622 37.8915 13.4334 37.7734 13.5155Z" fill="#E13363"/>
<path d="M52.1391 39.756C50.4323 41.5607 48.3887 43.7109 45.6974 43.6677C44.8651 43.6477 44.0545 43.3987 43.3545 42.9481C43.7071 42.7537 44.0113 42.4824 44.2445 42.1542C44.4777 41.8261 44.634 41.4496 44.7016 41.0527C45.0196 39.0925 42.2939 37.99 41.5857 40.0596C41.4256 40.5208 41.4056 41.0191 41.5283 41.4917C41.651 41.9642 41.9109 42.3899 42.2751 42.7149C41.6132 42.8776 40.9233 42.8899 40.256 42.7509C39.0656 42.5028 38.0093 41.8224 37.2912 40.8411C36.5994 39.7966 36.2931 38.5437 36.425 37.2978C36.4479 36.7337 35.7168 37.033 35.6275 37.4072C35.3764 38.6817 35.6095 40.0041 36.2812 41.116C36.953 42.2278 38.0151 43.0494 39.2601 43.4201C40.4514 43.7289 41.7104 43.6477 42.8523 43.1884C43.4871 43.6177 44.2164 43.8868 44.9779 43.9727C48.0347 44.2835 50.3431 41.886 52.2342 39.8309C52.3033 39.7531 52.2112 39.6797 52.1391 39.756ZM42.4983 39.5371C43.0954 39.2263 43.7431 39.7271 44.0007 40.2438C44.1451 40.5336 44.1891 40.8632 44.1258 41.1808C44.0625 41.4984 43.8955 41.7859 43.651 41.9982C43.4014 42.2385 43.1064 42.4264 42.7831 42.5509C42.0707 41.8011 41.3194 40.1489 42.4983 39.5371Z" fill="#E13363"/>
<path d="M3.02167 26.2335C3.05478 25.0482 3.40678 23.8938 4.04061 22.8917C4.12992 22.7521 3.94142 22.6615 3.85064 22.791C3.14443 23.8262 2.72895 25.0319 2.64751 26.2824C2.52023 27.5547 2.8053 28.8342 3.46069 29.9322C3.6032 30.1336 3.86802 29.8314 3.80171 29.6501C3.55651 29.111 3.35304 28.5538 3.19307 27.9835C3.05778 27.4105 3.00013 26.8219 3.02167 26.2335Z" fill="#E13363"/>
<path d="M1.61281 20.0939C0.337394 22.3055 -0.203318 24.8649 0.0685116 27.4034C0.0959226 27.5905 0.369289 27.4221 0.363542 27.2855C0.16703 24.8216 0.659363 22.3516 1.78553 20.1514C1.85745 20.0118 1.67898 19.9788 1.61281 20.0939Z" fill="#E13363"/>
<path d="M41.4088 6.01725C41.1308 5.3151 40.7688 4.6492 40.3308 4.03408C39.4814 2.83148 38.3646 1.84229 37.0683 1.14428C37.0265 1.12129 36.9647 1.2134 37.0064 1.23639C38.2606 1.97378 39.3263 2.99265 40.1193 4.21255C40.5092 4.811 40.8312 5.45106 41.0793 6.12086C41.205 6.46298 41.3117 6.8118 41.3988 7.16572C41.4822 7.52413 41.5096 7.89536 41.616 8.24374C41.6751 8.45094 41.937 8.26673 41.9427 8.1142C41.8921 7.38883 41.7112 6.67849 41.4088 6.01725Z" fill="#E13363"/>
<path d="M41.0691 0.0188552C40.9712 -0.0617569 40.8057 0.136903 40.9008 0.223263C42.6551 1.85306 43.7983 4.03447 44.1403 6.40445C44.185 6.72823 44.6843 6.41315 44.6368 6.14258C44.1847 3.75271 42.9252 1.59075 41.0691 0.0188552Z" fill="#E13363"/>
</svg>
