<svg width="40" height="44" viewBox="0 0 40 44" fill="none" xmlns="http://www.w3.org/2000/svg">
<path d="M12.9472 33.2074C12.456 33.4839 12.0223 33.8158 11.5706 34.1206C11.1045 34.4328 10.6349 34.7523 10.1617 35.0646C9.2368 35.6877 8.33339 36.3245 7.42117 36.9562C7.40501 36.9709 7.42833 36.9845 7.44265 36.9709C8.40865 36.3576 9.38015 35.7566 10.3249 35.1322C10.7872 34.831 11.2497 34.5262 11.7121 34.2264C12.1746 33.9178 12.6836 33.6253 13.1103 33.2984C13.2214 33.2098 13.0547 33.1484 12.9472 33.2074Z" fill="#E13363"/>
<path d="M15.8666 33.2146C15.0707 33.8085 14.3152 34.4423 13.5447 35.0637C12.7731 35.6851 12.0095 36.3075 11.2494 36.9384C11.2182 36.962 11.2494 36.9914 11.2829 36.9678C12.0743 36.3681 12.8602 35.7634 13.6406 35.1537C14.418 34.5417 15.2186 33.9421 15.974 33.3084C16.0699 33.2298 15.9694 33.134 15.8666 33.2146Z" fill="#E13363"/>
<path d="M21.161 32.5984C20.6714 32.9689 20.2285 33.4203 19.7789 33.8357C19.3094 34.2547 18.8437 34.69 18.3782 35.1116C17.451 35.9583 16.5305 36.8027 15.63 37.6643C15.6219 37.6706 15.63 37.6805 15.6393 37.6731C16.6053 36.8536 17.5577 36.0118 18.5022 35.17C18.9612 34.762 19.424 34.3468 19.8844 33.9414C20.3675 33.5413 20.8288 33.1188 21.2664 32.6755C21.3411 32.5984 21.2304 32.5474 21.161 32.5984Z" fill="#E13363"/>
<path d="M23.4437 32.7524C22.9955 33.0895 22.5846 33.5047 22.1671 33.8765C21.7375 34.2671 21.3025 34.665 20.8757 35.0604C20.0246 35.8376 19.1854 36.6259 18.3704 37.4392C18.3694 37.4398 18.3686 37.4406 18.3679 37.4415C18.3673 37.4425 18.3669 37.4435 18.3668 37.4447C18.3668 37.4458 18.367 37.4469 18.3676 37.4479C18.3681 37.4489 18.3688 37.4497 18.3698 37.4504C18.3707 37.4511 18.3718 37.4515 18.373 37.4517C18.3742 37.4518 18.3754 37.4517 18.3765 37.4513C18.3776 37.451 18.3786 37.4503 18.3794 37.4495C18.3802 37.4487 18.3808 37.4477 18.3811 37.4466C19.2922 36.7105 20.1767 35.9483 21.0492 35.1723C21.4733 34.7905 21.9029 34.4187 22.3231 34.0383C22.75 33.654 23.2156 33.281 23.6066 32.8631C23.7066 32.7475 23.5492 32.6754 23.4437 32.7524Z" fill="#E13363"/>
<path d="M28.0091 32.6818C26.1509 34.2363 24.3778 35.869 22.5796 37.4781C22.4475 37.6011 22.5943 37.7529 22.7263 37.6272C24.518 36.017 26.3295 34.4115 28.0586 32.7329C28.0945 32.6919 28.0559 32.6483 28.0091 32.6818Z" fill="#E13363"/>
<path d="M30.2295 32.7839C30.2015 32.7554 30.1494 32.7716 30.1214 32.7964C29.673 33.2105 29.23 33.6134 28.8002 34.0473C28.7749 34.0622 28.8002 34.0883 28.827 34.0672C29.2953 33.6818 29.7504 33.2826 30.2068 32.8822C30.2348 32.8585 30.2616 32.815 30.2295 32.7839Z" fill="#E13363"/>
<path d="M26.9889 35.771C26.6137 36.0981 26.2535 36.4387 25.8918 36.7794C25.5342 37.109 25.1698 37.4372 24.8375 37.7916C24.8201 37.8066 24.8455 37.8166 24.8615 37.8066C25.2552 37.5045 25.6168 37.1724 25.9906 36.8541C26.3602 36.5283 26.7326 36.2074 27.0929 35.8766C27.1889 35.7897 27.0903 35.6864 26.9889 35.771Z" fill="#E13363"/>
<path d="M31.7025 35.5341C31.2569 35.9121 30.8231 36.2976 30.3907 36.6892C29.9704 37.0772 29.5727 37.4777 29.1684 37.8905C29.1295 37.9265 29.1857 37.9526 29.227 37.929C29.6781 37.5696 30.1211 37.2028 30.5562 36.8236C30.9886 36.4455 31.4076 36.0588 31.824 35.6583C31.9307 35.5552 31.8187 35.4321 31.7025 35.5341Z" fill="#E13363"/>
<path d="M19.785 18.8963C20.1037 18.7612 20.4025 18.5839 20.6733 18.3694C20.943 18.1504 21.1878 17.9028 21.4032 17.6312C21.472 17.5493 21.4811 17.4324 21.3568 17.3901C21.2977 17.3765 21.2358 17.3815 21.1798 17.4044C21.1238 17.4273 21.0764 17.467 21.0443 17.5179C20.8681 17.7628 20.6672 17.9892 20.4447 18.1938C20.2128 18.4071 19.9632 18.6008 19.6984 18.7726C19.5934 18.8373 19.6902 18.9396 19.785 18.8963Z" fill="#E13363"/>
<path d="M20.2267 20.2727C20.5136 20.0407 20.7675 19.7713 20.9814 19.4719C21.193 19.1681 21.3705 18.8424 21.5108 18.5005C21.557 18.3964 21.5316 18.2737 21.3915 18.2667C21.3268 18.2701 21.2648 18.2934 21.2142 18.3333C21.1635 18.3733 21.1267 18.4279 21.1088 18.4895C21.0009 18.7923 20.8621 19.0835 20.6947 19.3586C20.5202 19.6455 20.3217 19.9173 20.1011 20.1711C20.0126 20.2684 20.1423 20.345 20.2267 20.2727Z" fill="#E13363"/>
<path d="M20.1112 28.7144C20.3953 28.4027 20.6356 28.0545 20.8255 27.6791C21.012 27.2992 21.1561 26.9003 21.2553 26.4895C21.2894 26.3639 21.2394 26.2294 21.0796 26.2455C21.0071 26.2604 20.941 26.2974 20.8906 26.3512C20.8403 26.4051 20.8081 26.4732 20.7987 26.5459C20.7293 26.907 20.623 27.2602 20.4815 27.6001C20.3341 27.9545 20.1568 28.296 19.9514 28.621C19.8682 28.7462 20.0283 28.8106 20.1112 28.7144Z" fill="#E13363"/>
<path d="M20.0742 29.4951C20.3498 29.3133 20.5992 29.0953 20.8158 28.8473C21.0306 28.5951 21.2171 28.3205 21.3717 28.0283C21.4219 27.9396 21.41 27.8282 21.2859 27.8099C21.2281 27.8073 21.1709 27.8227 21.1223 27.8539C21.0737 27.8851 21.0362 27.9305 21.0149 27.9839C20.8924 28.2441 20.7435 28.4914 20.5705 28.7218C20.3902 28.9621 20.1898 29.1869 19.9713 29.3939C19.884 29.4728 19.9928 29.5522 20.0742 29.4951Z" fill="#E13363"/>
<path d="M9.21868 32.157C8.69643 27.8873 9.37359 25.9203 9.49691 25C10.126 20.305 16.7254 14.4927 21.9641 15.6595C30.5872 16.7724 33.0511 28.9853 31.2832 32.619C31.6061 32.4108 31.9289 32.2026 32.2517 31.9943C24.5805 32.4388 16.9028 32.493 9.21868 32.157C8.85399 32.141 7.62368 32.8993 8.36074 32.9317C16.1448 33.2734 23.925 33.2197 31.7014 32.7706C31.9954 32.7536 32.6653 32.5742 32.6699 32.146C32.7343 26.0903 32.6786 24.6785 29.2975 19.5593C26.9866 16.0604 23.1108 13.9773 19.2601 14.9042C10.6758 16.9706 7.13793 24.1253 8.13957 32.7783C8.18535 33.1738 9.27745 32.6644 9.21868 32.157Z" fill="#E13363"/>
<path d="M21.2837 0.453771C17.1334 0.0249332 13.6034 2.9606 12.5336 6.86474C11.1985 11.7378 16.5717 15.105 20.9309 15.0471C25.2111 14.9902 27.7475 12.1344 28.4972 8.11018C28.9105 5.89151 29.0461 3.44399 27.068 1.93469C25.1288 0.455061 22.5673 0.170879 20.2196 0.484148C19.7734 0.543678 18.5333 1.33189 19.5704 1.19352C22.7081 0.774786 27.1191 1.90012 27.4903 5.5C27.8854 9.32993 25.626 14.7345 20.8235 14.2442C18.2407 13.9806 14.5502 12.4476 13.4954 10C11.9674 6.45392 16.2458 0.75782 20.2896 1.17567C20.667 1.21462 22.0987 0.537966 21.2837 0.453771Z" fill="#E13363"/>
<path d="M18.5242 16.7378H22.7026C23.5283 16.7378 23.9982 17.6819 23.5004 18.3407L21.4112 21.1055C21.0111 21.635 20.2156 21.635 19.8155 21.1055L17.7263 18.3407C17.2286 17.6819 17.6985 16.7378 18.5242 16.7378Z" stroke="#E13363" stroke-width="0.5"/>
<path d="M18.1283 30.4797L19.6339 23.1572C19.8528 22.0924 21.374 22.0924 21.5929 23.1572L23.0985 30.4797C23.226 31.1 22.7522 31.6811 22.119 31.6811H19.1078C18.4745 31.6811 18.0007 31.1 18.1283 30.4797Z" stroke="#E13363" stroke-width="0.6"/>
<path d="M39.4849 43.0159C39.7354 42.826 39.7845 36.1194 39.7761 34.9743C39.7817 34.3511 39.5787 33.7395 39.187 33.2C38.7954 32.6604 38.2287 32.2114 37.5426 31.8972C36.6932 31.5455 33.4552 31.9621 32.4885 32.0005C32.4885 32.0005 9.8165 32.7732 7.4976 31.9999C5.1787 31.2266 3.90132 32.0688 2.92902 32.661C2.37293 33.0141 1.92476 33.4594 1.61789 33.9636C1.31103 34.4678 1.15339 35.018 1.15674 35.5731C1.16253 36.7819 1.17054 37.9939 1.17213 39.2062L38.8313 39.436C38.8313 39.436 39.2344 43.2058 39.4849 43.0159ZM2.07526 35.5855C2.49946 32.661 4.99855 32.5 6.49801 33.1997L33.4882 33.0005C35.0199 32.9046 37.3464 32.2629 38.2186 33.3428C38.6325 33.8552 38.8526 34.4494 38.854 35.0583C38.8614 35.4316 38.8541 35.8022 38.8592 36.1691L38.8672 38.2771C36.0025 38.1464 33.0539 38.328 30.1896 38.3686C26.9731 38.407 23.7654 38.458 20.5554 38.5043C17.4165 38.5439 14.2784 38.5872 11.1411 38.6343C8.12276 38.5988 5.39801 38.3735 2.06718 38.0766L2.07526 35.5855Z" fill="#E13363"/>
</svg>
