<svg width="102" height="44" viewBox="0 0 102 44" fill="none" xmlns="http://www.w3.org/2000/svg">
<path d="M74.2764 0.858127C67.3278 1.6783 60.8136 4.63684 55.6507 9.31727L55.6479 9.32911C53.369 6.81187 50.6261 4.74882 47.5664 3.25072C42.8755 1.0723 37.752 -0.0380814 32.5716 0.000996808C27.3912 0.040075 22.2853 1.22763 17.6284 3.47656C10.0239 6.99863 -0.148265 14.4323 0.0016377 23.7446C0.0237862 26.34 0.792814 28.8755 2.21844 31.053C3.64406 33.2306 5.6671 34.9599 8.05002 36.038V36.0556C8.0832 36.1062 8.13726 36.0886 8.17904 36.0944C12.3878 38.0968 17.1538 38.6391 21.7112 37.6341C24.3539 40.2773 27.9015 41.8418 31.6524 42.0181C31.9946 42.0361 32.4566 41.4919 32.2194 41.1799C31.4783 40.1368 30.9252 38.9742 30.5846 37.744C30.3485 36.8225 30.2216 35.8768 30.2065 34.9262C30.2814 34.9337 30.357 34.9257 30.4286 34.9025C37.31 33.0209 45.8956 33.1667 52.2579 29.5731C55.9687 31.2205 59.5796 33.0803 63.0724 35.1432C66.339 37.3517 62.9222 40.5943 63.7323 43.6203C63.7473 43.6862 63.7761 43.7483 63.8167 43.8026C63.8573 43.8569 63.9089 43.9024 63.9681 43.9359C64.0274 43.9694 64.093 43.9903 64.1609 43.9974C64.2287 44.0044 64.2973 43.9973 64.3623 43.9767C66.4276 43.2965 68.2948 42.1285 69.8026 40.5734C71.3104 39.0183 72.4136 37.123 73.0167 35.051C79.8471 34.6648 87.1187 34.1534 93.1062 30.5479C95.4695 29.2026 97.4928 27.342 99.0229 25.1071C100.553 22.8722 101.55 20.3216 101.938 17.6485C103.212 4.03536 84.6588 -0.381536 74.2764 0.858127ZM30.5217 33.3895C30.3862 33.4404 30.2627 33.5183 30.159 33.6185C30.0552 33.7188 29.9734 33.8391 29.9187 33.972C29.8796 34.0018 29.8317 34.0198 29.8167 34.0642C29.3061 36.3823 29.6688 38.8053 30.8365 40.8768C27.1026 40.2488 23.7333 38.2794 21.3723 35.3453C20.9552 34.8221 20.0343 35.6813 20.3881 36.1598C20.6612 36.4985 20.9521 36.8345 21.2492 37.1672C17.7427 37.5351 14.1981 37.0748 10.9058 35.8238C10.9844 35.8029 11.0562 35.7624 11.1144 35.7063C11.1727 35.6501 11.2155 35.5801 11.2388 35.503C11.3734 34.8241 11.5724 34.1592 11.8329 33.5173C12.1187 32.8791 12.501 32.2878 12.9667 31.7638C13.0779 31.633 12.952 31.4367 12.8137 31.5736C12.2652 32.1097 11.7975 32.7213 11.425 33.3895C11.015 34.0611 10.7437 34.8067 10.6269 35.583C10.624 35.6086 10.6265 35.6345 10.6342 35.6591C10.642 35.6837 10.6549 35.7064 10.6721 35.7257C10.0459 35.4961 9.43382 35.2302 8.83916 34.9292C8.88124 34.7926 8.92302 34.6468 8.9651 34.504C9.12571 34.0022 9.31294 33.5092 9.52601 33.027C9.93499 32.053 10.4214 31.1128 10.9808 30.2153C11.0468 30.0993 10.8911 30.0278 10.8159 30.1319C10.1207 31.0055 9.52333 31.9513 9.03421 32.9527C8.80598 33.4491 8.59617 33.9513 8.41309 34.4627C8.38913 34.5339 8.37101 34.5905 8.35319 34.6587C7.56846 34.2256 6.82808 33.7179 6.14244 33.1429C6.44495 32.8269 6.71707 32.4836 6.95524 32.1175C7.25812 31.7134 7.55514 31.3089 7.84911 30.8989C8.4521 30.1051 9.02224 29.2669 9.58592 28.4497C9.69711 28.2771 9.53492 28.1137 9.397 28.2951C8.74025 29.0648 8.08011 29.8318 7.44733 30.6401C7.14721 31.0325 6.82929 31.4248 6.52027 31.8113C6.24465 32.1291 5.99484 32.468 5.77321 32.8249C3.64844 30.9323 2.18786 28.4179 1.60357 25.6468C-0.424113 16.3525 9.68513 8.77611 17.0285 5.14113C24.916 1.15104 34.0644 0.371373 42.5237 2.9683C50.0533 5.38493 61.5934 13.193 57.4237 22.4991C53.0409 32.2661 39.1491 31.0386 30.5217 33.3895ZM95.6229 27.2368C89.5546 32.7801 80.5911 33.2053 72.7946 33.6275C72.5913 33.6429 72.398 33.7207 72.2415 33.8502C72.085 33.9797 71.9732 34.1543 71.9216 34.3497C71.4957 36.1295 70.6456 37.7823 69.4426 39.1697C68.2395 40.5572 66.7186 41.6388 65.007 42.3243C64.6983 39.6997 67.2421 36.8108 64.7281 34.6143C63.175 33.5185 61.4965 32.6085 59.7276 31.9035C57.6578 30.8541 55.594 29.8068 53.5361 28.7617C55.2242 27.6118 56.6658 26.1419 57.7776 24.437C61.2094 19.1493 59.5024 13.844 55.9238 9.66178C66.4919 0.795434 84.6047 -1.68631 95.797 7.58727C102.393 13.0591 101.752 21.6579 95.6229 27.2368Z" fill="#E13363"/>
<path d="M79.9004 7.83926C79.6554 7.76922 79.3371 8.21213 79.6418 8.28644C81.7623 8.92753 83.8781 10.7494 85.0411 12.6196C86.2041 14.4897 86.6386 16.7161 86.263 18.881C85.8723 21.0408 84.81 23.0255 83.2247 24.5576C81.6394 26.0896 79.6103 27.0924 77.4215 27.4255C75.3632 27.6422 73.2853 27.2677 71.4358 26.3468C69.5863 25.4259 68.0431 23.9974 66.9902 22.2316C65.977 20.3217 65.5789 18.1501 65.8493 16.0092C66.1198 13.8683 67.0458 11.861 68.5028 10.2575C70.2829 8.51977 72.6137 7.44412 75.1016 7.21218C77.5894 6.98025 80.0819 7.60626 82.1578 8.98446C82.2456 9.05479 82.418 8.88534 82.3152 8.80693C80.4694 7.46312 78.2444 6.72716 75.954 6.70275C73.6635 6.67835 71.4231 7.36672 69.5485 8.6709C67.7302 10.0471 66.3785 11.9398 65.6736 14.0966C64.9686 16.2534 64.9439 18.5719 65.6027 20.743C66.3138 22.8795 67.6883 24.7386 69.5297 26.0547C71.3711 27.3708 73.5852 28.0765 75.8557 28.071C78.1262 28.0655 80.3368 27.3491 82.1717 26.0241C84.0066 24.6991 85.3719 22.8334 86.0725 20.6935C86.5278 19.4978 86.7368 18.2237 86.6871 16.9466C86.6374 15.6695 86.33 14.4152 85.7831 13.2577C85.2361 12.1002 84.4607 11.0631 83.5026 10.2074C82.5445 9.35168 81.1189 8.25851 79.9004 7.83926Z" fill="#E13363"/>
<path d="M80.2046 7.7587C79.9596 7.68866 79.6412 8.13156 79.9459 8.20588C82.0664 8.84697 83.8781 10.2325 85.0411 12.1027C86.2041 13.9729 86.6386 16.1992 86.2631 18.3641C85.8723 20.5239 84.81 22.5087 83.2247 24.0407C81.6394 25.5728 79.6103 26.5755 77.4215 26.9087C75.3632 27.1253 73.2853 26.7509 71.4358 25.83C69.5863 24.9091 68.0431 23.4805 66.9902 21.7147C65.977 19.8049 65.5789 17.6333 65.8493 15.4924C66.1198 13.3515 67.0458 11.3441 68.5028 9.74059C70.2829 8.00291 72.4085 7.29321 74.8963 7.06127C77.3842 6.82934 79.8766 7.45535 81.9526 8.83355C82.0404 8.90388 82.2128 8.73443 82.11 8.65602C80.2641 7.31221 78.0392 6.57625 75.7487 6.55184C73.4583 6.52744 71.4231 6.84986 69.5485 8.15403C67.7302 9.53025 66.3785 11.4229 65.6736 13.5798C64.9686 15.7366 64.9439 18.0551 65.6027 20.2262C66.3138 22.3626 67.6883 24.2217 69.5297 25.5378C71.3711 26.8539 73.5852 27.5596 75.8557 27.5542C78.1262 27.5487 80.3368 26.8322 82.1717 25.5073C84.0066 24.1823 85.3719 22.3166 86.0725 20.1767C86.5278 18.9809 86.7368 17.7069 86.6871 16.4298C86.6374 15.1526 86.33 13.8983 85.7831 12.7408C85.2361 11.5834 84.4607 10.5462 83.5026 9.69051C82.5445 8.83481 81.4231 8.17795 80.2046 7.7587Z" fill="#E13363"/>
<path d="M72.0337 12.8746C71.3859 12.8413 70.7486 13.0461 70.244 13.4499C69.7394 13.8536 69.403 14.4278 69.2995 15.0622C69.2987 15.0765 69.3179 15.0664 69.3187 15.0524C69.523 14.4671 69.8978 13.955 70.3959 13.5808C70.8862 13.2189 71.4993 13.06 72.1056 13.1381C72.6884 13.2366 73.2184 13.5332 73.6044 13.9769C73.9904 14.4206 74.2084 14.9837 74.2208 15.5694C74.2257 15.7983 74.616 15.6594 74.6106 15.4543C74.5655 14.7893 74.2803 14.1626 73.8071 13.6889C73.3339 13.2152 72.7043 12.9261 72.0337 12.8746Z" fill="#E13363"/>
<path d="M81.1976 13.4778C80.8585 13.4448 80.5161 13.4804 80.1912 13.5824C79.8664 13.6844 79.5658 13.8507 79.3078 14.0712C79.0596 14.2643 78.8614 14.513 78.7294 14.797C78.5975 15.0809 78.5356 15.3919 78.5489 15.7042C78.5538 15.7557 78.6271 15.722 78.6345 15.6901C78.7698 15.1245 79.0835 14.6164 79.5302 14.2395C79.7756 14.0577 80.0571 13.9292 80.3561 13.8626C80.6552 13.796 80.965 13.7927 81.2655 13.8529C81.8471 13.9846 82.3667 14.3075 82.7395 14.7691C83.1123 15.2306 83.3164 15.8037 83.3186 16.3949C83.3239 16.6431 83.7279 16.4881 83.7188 16.2871C83.7144 15.5954 83.4562 14.9288 82.9923 14.4119C82.5284 13.8949 81.8905 13.5629 81.1976 13.4778Z" fill="#E13363"/>
<path d="M81.5254 19.2427C81.0774 20.2107 80.3531 21.0275 79.4418 21.5921C78.5306 22.1568 77.4724 22.4445 76.3979 22.4199C75.3108 22.3413 74.2703 21.951 73.4032 21.2966C72.5361 20.6423 71.88 19.7521 71.5147 18.7346C71.4912 18.6693 71.3764 18.7463 71.3928 18.8004C71.6999 19.9192 72.3636 20.9098 73.2851 21.6244C74.2066 22.3391 75.3365 22.7395 76.5064 22.766C77.6195 22.7558 78.704 22.4156 79.6202 21.7891C80.5364 21.1627 81.2422 20.2788 81.6468 19.2512C81.6722 19.173 81.5489 19.1832 81.5254 19.2427Z" fill="#E13363"/>
<path d="M81.5254 18.9922C81.0774 19.9602 80.3531 20.777 79.4418 21.3416C78.5306 21.9063 77.4723 22.1941 76.3979 22.1694C75.3108 22.0908 74.2703 21.7005 73.4032 21.0462C72.5361 20.3918 71.88 19.5016 71.5147 18.4841C71.4911 18.4188 71.3764 18.4958 71.3928 18.5499C71.6999 19.6687 72.3636 20.6593 73.2851 21.3739C74.2066 22.0886 75.3365 22.489 76.5064 22.5156C77.6195 22.5053 78.704 22.1651 79.6202 21.5386C80.5364 20.9122 81.2422 20.0283 81.6468 19.0007C81.6722 18.9225 81.5489 18.9327 81.5254 18.9922Z" fill="#E13363"/>
<path d="M84.7304 28.4616C84.4217 28.86 84.1007 29.2611 83.8037 29.6714C83.4885 30.1051 83.2096 30.5541 82.9187 30.9851C82.6278 31.4191 82.3516 31.8558 82.0696 32.278C81.9286 32.492 81.7849 32.7002 81.6559 32.9023C81.5149 33.1132 81.3048 33.3509 81.4396 33.6096C81.4574 33.6388 81.4819 33.6635 81.5111 33.6816C81.5403 33.6996 81.5733 33.7106 81.6076 33.7136C81.9136 33.678 82.0457 33.443 82.1928 33.2111C82.3188 33.0032 82.4567 32.7982 82.5826 32.5781C82.8677 32.1353 83.1408 31.7013 83.4228 31.2584C83.6897 30.8247 83.9655 30.3937 84.2297 29.9536C84.4874 29.505 84.7184 29.038 84.9614 28.5833C85.0545 28.3961 84.8386 28.2982 84.7304 28.4616Z" fill="#E13363"/>
<path d="M88.1 28.4943C87.8991 28.8361 87.6982 29.181 87.5121 29.5438C87.329 29.8795 87.1733 30.2301 87.0052 30.5722C86.6722 31.2734 86.3362 31.978 85.9913 32.6765C85.9163 32.8309 85.9074 33.0984 86.1381 33.1431C86.3783 33.1726 86.5463 32.9469 86.6271 32.7685C86.906 32.0581 87.1791 31.3508 87.4611 30.6522C87.6021 30.2955 87.7551 29.9537 87.8782 29.597C88.0069 29.2406 88.112 28.8721 88.2232 28.5062C88.2499 28.4143 88.1301 28.4319 88.1 28.4943Z" fill="#E13363"/>
<path d="M92.8955 26.1935C92.3496 26.81 91.8905 27.4969 91.5307 28.2355C91.1777 28.9829 90.9082 29.7663 90.7269 30.5717C90.6639 30.8183 90.7659 31.0797 91.0776 31.0441C91.219 31.0132 91.347 30.9392 91.4438 30.8326C91.5406 30.7261 91.6014 30.5922 91.6177 30.4497C91.7423 29.7421 91.9393 29.049 92.2056 28.381C92.483 27.6845 92.8192 27.0124 93.2107 26.3719C93.3695 26.1251 93.0546 26.0033 92.8955 26.1935Z" fill="#E13363"/>
<path d="M31.8362 7.96795C31.5573 7.95 31.3352 8.5149 31.6802 8.50882C34.0759 8.67808 36.3272 9.70678 38.0124 11.4023C39.6977 13.0979 40.7015 15.344 40.8356 17.72C40.9556 20.095 40.3213 22.4476 39.0218 24.447C37.7224 26.4463 35.8231 27.9917 33.5912 28.866C31.4694 29.5941 29.1807 29.7001 26.9996 29.1713C24.8186 28.6425 22.8378 27.5014 21.2951 25.8848C19.7552 24.1162 18.801 21.9214 18.5617 19.5977C18.3223 17.2739 18.8094 14.9335 19.957 12.8931C21.4068 10.6237 23.6054 8.92208 26.1787 8.07779C28.752 7.2335 31.541 7.29866 34.0713 8.26226C34.188 8.30365 34.3142 8.08968 34.1941 8.02424C31.9136 7.05175 29.3827 6.81264 26.9577 7.34053C24.5328 7.86841 22.3361 9.13673 20.6771 10.9668C19.0922 12.8543 18.1263 15.1758 17.9081 17.6215C17.6899 20.0672 18.2299 22.5207 19.456 24.6543C20.7818 26.7421 22.7315 28.3685 25.0338 29.3071C27.3361 30.2458 29.8764 30.45 32.3013 29.8914C34.6439 29.2828 36.7417 27.9767 38.3113 26.1493C39.8809 24.3219 40.8469 22.0614 41.0786 19.6728C41.2653 18.3003 41.1729 16.9046 40.8068 15.5681C40.4408 14.2315 39.8085 12.981 38.9472 11.8903C38.0859 10.7995 37.0131 9.89058 35.7919 9.21696C34.5706 8.54334 33.2257 8.11867 31.8362 7.96795Z" fill="#E13363"/>
<path d="M31.8362 7.70978C31.5573 7.69182 31.3352 8.25672 31.6802 8.25064C34.0759 8.4199 36.3272 9.4486 38.0124 11.1441C39.6977 12.8397 40.7015 15.0858 40.8356 17.4618C40.9556 19.8369 40.3213 22.1895 39.0218 24.1888C37.7224 26.1881 35.8231 27.7336 33.5912 28.6079C31.4694 29.3359 29.1807 29.442 26.9996 28.9132C24.8186 28.3844 22.8378 27.2432 21.2951 25.6266C19.7552 23.858 18.801 21.6632 18.5617 19.3395C18.3223 17.0158 18.8094 14.6753 19.957 12.6349C21.4068 10.3655 23.6054 8.66391 26.1787 7.81961C28.752 6.97532 31.541 7.04048 34.0713 8.00408C34.188 8.04547 34.3142 7.8315 34.1941 7.76606C31.9136 6.79357 29.3827 6.55446 26.9577 7.08235C24.5328 7.61023 22.3361 8.87855 20.6771 10.7087C19.0922 12.5961 18.1263 14.9176 17.9081 17.3633C17.6899 19.809 18.2299 22.2625 19.456 24.3961C20.7818 26.4839 22.7315 28.1103 25.0338 29.049C27.3361 29.9876 29.8764 30.1918 32.3013 29.6332C34.6439 29.0246 36.7417 27.7185 38.3113 25.8911C39.8809 24.0638 40.8469 21.8032 41.0786 19.4146C41.2653 18.0421 41.1729 16.6465 40.8068 15.3099C40.4408 13.9733 39.8085 12.7229 38.9472 11.6321C38.0859 10.5414 37.0131 9.6324 35.7919 8.95878C34.5706 8.28516 33.2257 7.86049 31.8362 7.70978Z" fill="#E13363"/>
<path d="M35.9158 19.2359C35.6827 20.3686 35.1189 21.4086 34.2945 22.2266C33.47 23.0446 32.4213 23.6047 31.2784 23.8372C30.1112 24.0129 28.9176 23.8491 27.8425 23.3658C26.7674 22.8825 25.857 22.1004 25.2217 21.1144C25.1766 21.052 25.0657 21.1561 25.1016 21.2185C25.7017 22.3264 26.6473 23.2124 27.7972 23.7443C28.9471 24.2762 30.2398 24.4255 31.4823 24.1699C32.6558 23.8906 33.7178 23.2688 34.5307 22.3849C35.3436 21.5011 35.8701 20.3958 36.0421 19.2122C36.054 19.126 35.9278 19.1708 35.9158 19.2359Z" fill="#E13363"/>
<path d="M35.9158 18.9063C35.6827 20.0391 35.1189 21.079 34.2945 21.897C33.47 22.715 32.4213 23.2751 31.2784 23.5076C30.1112 23.6833 28.9176 23.5195 27.8425 23.0362C26.7674 22.5529 25.857 21.7708 25.2217 20.7848C25.1766 20.7224 25.0657 20.8265 25.1016 20.8889C25.7017 21.9969 26.6473 22.8829 27.7972 23.4147C28.9471 23.9466 30.2398 24.0959 31.4823 23.8403C32.6558 23.561 33.7178 22.9392 34.5307 22.0553C35.3436 21.1715 35.8701 20.0662 36.0421 18.8826C36.0541 18.7964 35.9278 18.8412 35.9158 18.9063Z" fill="#E13363"/>
<path d="M25.5666 15.2054C25.5582 15.1645 25.543 15.1253 25.5215 15.0894C25.5037 15.0599 25.4647 15.048 25.4407 15.0213C25.317 14.8555 25.146 14.7301 24.9499 14.6612C24.7537 14.5924 24.5413 14.5831 24.3398 14.6347C24.1881 14.6823 24.046 14.7557 23.9199 14.8517C23.765 14.994 23.6494 15.173 23.5838 15.3719C23.4837 15.6224 23.4731 15.8992 23.5537 16.1565C23.5934 16.2913 23.6634 16.4153 23.7585 16.5193C23.8536 16.6233 23.9712 16.7046 24.1026 16.757C24.24 16.8002 24.3849 16.8151 24.5283 16.8008C24.6718 16.7864 24.8107 16.7432 24.9366 16.6737C25.0956 16.5958 25.2375 16.4873 25.3539 16.3546C25.4702 16.222 25.5589 16.0677 25.6146 15.9009C25.6544 15.7878 25.6708 15.6678 25.6625 15.5483C25.6543 15.4287 25.6217 15.3121 25.5666 15.2054Z" fill="#E13363"/>
<path d="M35.2649 13.8797H35.2591C35.241 13.8498 35.241 13.8024 35.2109 13.7637C35.1879 13.7397 35.1629 13.7178 35.1359 13.6983C35.0105 13.5329 34.8384 13.4079 34.6415 13.3392C34.4446 13.2704 34.2315 13.261 34.0291 13.3121C33.8758 13.3579 33.7337 13.4347 33.612 13.5379C33.4569 13.6792 33.3385 13.8555 33.267 14.0519C33.1706 14.3014 33.1621 14.5759 33.2431 14.8308C33.2818 14.9647 33.3509 15.0882 33.445 15.1917C33.5391 15.2952 33.6558 15.3761 33.7862 15.4283C33.9232 15.474 34.0684 15.4911 34.2124 15.4783C34.3565 15.4655 34.4963 15.4232 34.6229 15.354C34.9451 15.1952 35.1918 14.9177 35.3101 14.5809C35.3853 14.35 35.3692 14.0993 35.2649 13.8797Z" fill="#E13363"/>
</svg>
