<svg width="257" height="206" viewBox="0 0 257 206" fill="none" xmlns="http://www.w3.org/2000/svg">
<path d="M153.71 108.208C147.9 97.4945 138.888 88.8641 127.933 83.5222C116.979 78.1802 104.629 76.3935 92.6102 78.4116C80.7597 80.3932 69.7655 85.8523 61.024 94.0954C52.0754 102.389 45.9434 113.273 43.4861 125.224C41.0288 137.175 42.369 149.596 47.3194 160.748C52.2698 171.899 60.5826 181.225 71.0946 187.418C81.6067 193.612 93.7921 196.365 105.946 195.291C118.011 194.203 129.474 189.53 138.86 181.873C148.243 174.23 155.082 163.917 158.472 152.301C159.29 149.404 159.893 146.451 160.278 143.465C161.824 131.315 159.527 118.986 153.71 108.208ZM143.249 175.976C135.442 184.361 125.244 190.139 114.039 192.528C102.91 194.832 91.3481 193.795 80.8066 189.547C80.9174 189.311 81.0081 189.056 81.0947 188.817C81.1824 188.546 81.283 188.268 81.3795 187.993C81.6085 187.404 81.8681 186.828 82.157 186.267C82.4359 185.704 82.7436 185.151 83.0696 184.626C83.3999 184.097 83.6825 183.545 83.9938 183.009C84.1201 182.781 83.8222 182.753 83.7011 182.882C83.1853 183.324 82.721 183.822 82.3172 184.367C81.9225 184.921 81.5555 185.479 81.2206 186.063C80.8808 186.654 80.5657 187.272 80.2893 187.88C80.1391 188.195 80.0027 188.499 79.8727 188.819C79.833 188.913 79.7843 189.025 79.7429 189.125C79.4358 188.999 79.1118 188.882 78.7923 188.749C77.7689 188.284 76.7823 187.75 75.7941 187.209C76.0811 186.734 76.3002 186.222 76.4447 185.686C76.683 185.087 76.9188 184.482 77.2165 183.902C77.504 183.339 77.8302 182.796 78.1928 182.278C78.5935 181.784 78.9625 181.265 79.2974 180.724C79.3263 180.67 79.2735 180.613 79.2119 180.654C78.6447 180.991 78.1524 181.441 77.7648 181.975C77.3077 182.499 76.8908 183.057 76.5177 183.644C76.1389 184.224 75.8095 184.836 75.5331 185.471C75.4011 185.812 75.2743 186.119 75.1674 186.46C75.1356 186.577 75.0867 186.704 75.0582 186.837C73.7269 186.077 72.416 185.282 71.1546 184.437C71.2378 184.222 71.3075 184.018 71.3973 183.82C71.6867 183.112 72.0278 182.425 72.3844 181.746C73.0914 180.407 73.905 179.128 74.8172 177.919C75.0275 177.635 74.5638 177.517 74.3891 177.724C73.3614 178.948 72.4253 180.247 71.5884 181.609C71.1751 182.298 70.7907 182.994 70.4352 183.699C70.4064 183.752 70.3814 183.817 70.3526 183.871C69.4959 183.282 68.5908 182.738 67.7603 182.093C68.4506 181.019 69.1746 179.94 69.8187 178.825C70.4774 177.682 71.1494 176.518 71.8165 175.369C71.8594 175.291 71.7625 175.29 71.7213 175.337C70.8783 176.444 70.0308 177.554 69.1897 178.655C68.462 179.614 67.8042 180.621 67.1134 181.604C66.0212 180.744 64.9687 179.858 63.9328 178.923C64.7454 176.061 66.1355 173.395 68.0173 171.09C68.2457 170.818 67.8878 170.642 67.673 170.864C65.7461 173.011 64.2256 175.49 63.1859 178.181C62.3078 177.379 61.4181 176.58 60.5949 175.71C60.7521 175.349 60.8789 174.975 60.974 174.592C61.0957 174.222 61.2373 173.833 61.3712 173.446C61.6586 172.665 61.9902 171.908 62.3291 171.148C63.0158 169.579 63.8479 168.078 64.8147 166.664C64.9133 166.526 64.6793 166.462 64.5953 166.572C63.4706 167.949 62.4666 169.421 61.5943 170.97C61.1829 171.722 60.8133 172.496 60.487 173.288C60.3118 173.722 60.1366 174.156 59.98 174.588C59.94 174.681 59.9071 174.776 59.8757 174.865C58.8324 173.734 57.7675 172.615 56.8231 171.396L56.8401 171.386C57.1738 171.103 57.426 170.736 57.5704 170.323C57.7451 169.957 57.9391 169.601 58.1218 169.258C58.5306 168.508 58.9453 167.747 59.372 167.022C60.2479 165.543 61.166 164.107 62.1365 162.69C62.1641 162.656 62.1832 162.617 62.1925 162.575C62.2017 162.532 62.2006 162.489 62.1895 162.447C62.1783 162.405 62.1573 162.367 62.1282 162.335C62.0991 162.303 62.0628 162.278 62.0223 162.263C61.8165 162.2 61.6011 162.372 61.4854 162.52C60.4459 163.941 59.4604 165.387 58.5399 166.872C58.0803 167.598 57.6348 168.34 57.1952 169.086C56.9939 169.47 56.7776 169.842 56.5786 170.219C56.4711 170.382 56.3725 170.551 56.2832 170.724C55.4528 169.615 54.6548 168.479 53.9011 167.326C54.0289 167.146 54.1466 166.96 54.2538 166.768C54.4787 166.401 54.7086 166.018 54.9463 165.659C55.3699 164.973 55.8054 164.268 56.2286 163.582C57.1255 162.144 58.0195 160.731 58.8979 159.295C59.2095 158.809 58.4846 158.766 58.2522 159.106C57.2954 160.527 56.334 161.937 55.3872 163.347L53.9947 165.393C53.7633 165.729 53.531 166.068 53.296 166.418C53.2983 166.397 53.28 166.385 53.272 166.361C52.4334 165.03 51.6838 163.663 50.9707 162.28C52.8736 160.261 54.7715 158.218 56.668 156.183C56.7535 156.105 56.621 156.051 56.5501 156.115C54.6311 158.047 52.7159 159.976 50.8044 161.901C45.8604 152.106 43.8276 141.098 44.9469 130.183C46.0661 119.268 50.2904 108.902 57.1194 100.313C64.2811 91.4054 73.9897 84.894 84.949 81.6482C96.5676 78.2852 108.952 78.6841 120.33 82.7878C131.278 86.7444 140.775 93.9166 147.575 103.364C154.376 112.812 158.163 124.094 158.441 135.731C158.505 138.676 158.348 141.621 157.971 144.541C156.431 156.29 151.288 167.272 143.249 175.976Z" fill="#40A89C"/>
<path d="M129.759 88.749C129.694 88.6703 129.525 88.7896 129.584 88.8773C132.195 92.5035 127.003 94.8877 124.623 96.6017C123.246 97.5364 122.228 98.9119 121.736 100.502C121.343 102.187 121.291 103.933 121.584 105.638C121.818 107.042 121.961 108.459 122.013 109.882C122.108 110.742 121.955 111.611 121.572 112.388C121.189 113.164 120.593 113.815 119.853 114.264C118.124 115.601 118.022 115.9 115.978 114.656C115.627 114.422 115.294 114.161 114.983 113.875C113.987 113.005 113.146 111.947 112.215 111.011C111.055 109.741 109.63 108.741 108.042 108.082C103.67 106.961 99.0522 107.292 94.8851 109.025C91.3853 109.696 88.2042 111.501 85.8346 114.163C83.2312 117.903 85.1203 122.271 84.8267 126.409C84.8055 127.779 84.4468 129.122 83.7825 130.321C81.9084 133.121 79.4728 132.459 77.1964 131.529C75.3128 130.487 73.3059 129.687 71.2228 129.145C70.0237 129 68.8072 129.138 67.6715 129.55C66.0046 130.372 64.0835 130.515 62.3132 129.949C60.5429 129.382 59.0616 128.15 58.1818 126.513C54.4402 119.376 61.9408 115.316 63.6861 109.244C63.9491 108.423 64.0476 107.559 63.9757 106.699C63.9038 105.84 63.663 105.004 63.2672 104.238C62.7112 103.335 62.0708 102.486 61.3546 101.703C60.3049 100.409 57.7569 95.9411 61.7375 95.3981C61.7998 95.3937 61.8551 95.2686 61.7577 95.2708C59.1216 95.2018 58.504 98.2959 59.3654 100.337C60.9674 104.109 64.3371 105.247 62.404 110.143C61.192 113.165 58.5629 115.333 57.2206 118.292C56.1141 120.377 55.8447 122.806 56.4673 125.083C57.09 127.36 58.5578 129.314 60.5715 130.546C61.4654 130.994 62.4389 131.261 63.4361 131.332C64.4334 131.403 65.4349 131.277 66.3833 130.96C67.9925 130.282 69.7545 130.048 71.485 130.283C73.187 130.875 74.8426 131.592 76.4383 132.43C77.1655 132.877 77.9794 133.166 78.8264 133.276C79.6733 133.386 80.534 133.316 81.3516 133.069C82.1692 132.822 82.9252 132.404 83.5696 131.844C84.214 131.284 84.7323 130.593 85.0902 129.817C87.9777 123.417 82.156 115.711 90.3451 111.655C96.8801 108.425 105.888 106.276 111.429 112.131C113.779 114.615 116.857 118.404 120.621 115.88C125.777 112.423 121.692 105.954 122.812 101.366C123.835 97.1634 127.463 96.794 129.606 93.7046C130.206 93.0266 130.55 92.1597 130.578 91.2544C130.606 90.3492 130.316 89.4627 129.759 88.749Z" fill="#40A89C"/>
<path d="M106.704 145.423C106.128 144.911 105.454 144.521 104.723 144.276C103.993 144.03 103.22 143.934 102.451 143.993C101.683 144.053 100.934 144.266 100.25 144.62C99.5653 144.975 98.9591 145.463 98.4673 146.057C97.032 148.088 97.5561 150.67 96.7271 152.902C95.4542 156.307 91.9866 156.271 89.0386 157.536C87.5089 158.121 86.1991 159.168 85.2902 160.531C83.3175 163.562 83.2355 168.972 78.2684 168.213C75.5407 167.454 73.0803 165.946 71.1665 163.859C69.6423 162.763 68.4212 161.298 67.6177 159.602C66.8141 157.905 66.4544 156.032 66.5722 154.159C66.8836 149.677 68.9418 143.116 63.4953 140.75C58.6372 138.637 47.5069 144.369 45.8635 136.688C45.8385 136.555 45.5929 136.679 45.6247 136.799C46.066 138.238 46.9964 139.478 48.2551 140.303C49.5137 141.128 51.0213 141.487 52.5169 141.318C54.9965 141.42 57.4271 140.712 59.8985 140.818C60.8505 140.816 61.7913 141.024 62.6538 141.427C63.5164 141.83 64.2793 142.418 64.8883 143.15C65.4973 143.882 65.9372 144.739 66.1768 145.661C66.4165 146.582 66.4498 147.545 66.2745 148.481C65.9833 153.496 64.0166 157.948 67.4787 162.344C70.0652 166.024 73.911 168.627 78.288 169.662C81.7823 170.01 83.8036 167.488 84.9847 164.554C85.3198 163.123 86.0129 161.8 86.9988 160.71C87.9847 159.62 89.2313 158.798 90.6216 158.321C92.4851 157.89 94.276 157.19 95.9384 156.244C97.2138 155.348 98.1181 154.017 98.4812 152.502C98.6681 151.673 98.7921 150.831 98.8523 149.983C99.1776 147.449 100.608 144.856 103.53 145.642C104.284 145.9 104.976 146.313 105.56 146.855C106.145 147.397 106.608 148.056 106.921 148.789C107.234 149.522 107.389 150.313 107.377 151.11C107.364 151.907 107.184 152.692 106.848 153.415C105.142 156.844 102.407 159.653 99.0259 161.451C95.1863 164.173 90.8118 167.53 90.2348 172.579C90.1546 175.355 90.7266 178.111 91.9046 180.626C93.1818 184.138 95.296 192.03 88.9418 191.922C88.2481 191.909 87.1857 193.334 88.2151 193.474C89.8984 193.627 91.576 193.125 92.8981 192.071C94.2201 191.018 95.0845 189.495 95.3111 187.82C96.6057 181.095 89.5025 175.25 93.5596 168.657C96.7333 163.451 103.314 161.627 106.77 156.599C108.974 153.392 110.151 148.248 106.704 145.423Z" fill="#40A89C"/>
<path d="M148.73 147.907C146.39 145.515 143.164 147.671 141.472 149.708C139.242 152.35 136.791 155.425 132.7 154.349C131.191 153.87 129.76 153.171 128.453 152.276C123.44 149.026 121.748 143.404 129.005 140.572C132.303 139.286 136.856 138.012 137.34 133.796C138.036 127.871 130.463 130.305 128.165 127.087C124.336 121.701 137.21 118.622 139.013 114.772C141.711 109.042 132.097 100.076 138.903 95.846C139.036 95.7561 138.969 95.5797 138.833 95.6544C137.512 96.5596 136.54 97.8884 136.077 99.4212C135.614 100.954 135.687 102.599 136.286 104.084C137.614 109.435 141.296 114.332 134.156 118.015C132.289 118.766 130.532 119.764 128.931 120.983C126.43 123.315 125.274 127.19 128.917 129.041C129.961 129.431 131.043 129.713 132.144 129.881C133.141 130.047 134.101 130.388 134.979 130.888C136.816 134.336 136.041 136.763 132.654 138.167C130.171 139.062 127.753 140.124 125.414 141.346C117.079 147.46 129.526 157.386 136.439 155.846C138.061 155.43 139.488 154.466 140.479 153.117C140.974 152.443 141.45 151.75 141.895 151.033C146.587 148.334 148.74 148.689 148.353 152.097C148.174 153.975 147.77 155.824 147.149 157.604C144.839 165.572 141.185 173.086 136.342 179.821C135.68 180.751 137.195 180.889 137.696 180.181C141.832 174.363 145.103 167.976 147.407 161.22C148.45 158.159 151.675 150.951 148.73 147.907Z" fill="#40A89C"/>
<path d="M134.514 174.593C133.479 171.273 131.185 168.489 128.124 166.837C127.998 166.746 127.81 166.842 127.711 166.984C127.122 166.347 126.409 165.838 125.616 165.486C124.823 165.135 123.966 164.95 123.099 164.941C122.001 164.955 120.945 165.368 120.129 166.105C119.314 166.841 118.795 167.849 118.669 168.94C118.252 170.86 117.825 172.486 115.561 172.687C113.871 172.85 112.235 172.223 110.564 172.222C109.443 172.19 108.34 172.515 107.414 173.149C106.488 173.783 105.786 174.694 105.41 175.751C103.491 181.021 108.96 184.625 113.702 183.941C115.295 183.723 116.75 182.969 118.318 182.658C120.268 182.427 122.242 182.515 124.164 182.919C126.706 183.365 129.325 182.954 131.608 181.751C132.79 181.021 133.708 179.933 134.23 178.647C134.753 177.36 134.852 175.94 134.514 174.593ZM131.637 180.878C129.396 182.151 126.759 182.537 124.248 181.961C121.735 181.417 119.127 181.496 116.652 182.191C115.445 182.725 114.137 182.992 112.818 182.975C111.498 182.959 110.198 182.658 109.005 182.094C108.024 181.586 107.232 180.778 106.743 179.788C106.255 178.797 106.096 177.677 106.289 176.589C106.453 175.554 106.995 174.616 107.809 173.956C109.212 173.242 110.835 173.089 112.347 173.528C113.284 173.773 114.261 173.826 115.22 173.685C116.178 173.543 117.098 173.209 117.924 172.704C120.069 170.969 118.763 167.231 121.361 166.025C124.501 164.528 127.594 167.333 129.665 169.354C129.723 169.402 129.849 169.321 129.802 169.258C129.453 168.851 129.098 168.438 128.735 168.027C130.706 169.362 132.28 171.206 133.289 173.362C133.901 174.618 134.071 176.044 133.771 177.408C133.471 178.772 132.719 179.995 131.637 180.878Z" fill="#40A89C"/>
<path d="M115.584 122.032C115.223 121.685 114.758 121.467 114.261 121.411C113.763 121.354 113.261 121.463 112.831 121.719C112.456 121.951 112.758 122.36 113.137 122.143C113.478 121.994 113.86 121.964 114.22 122.056C114.581 122.149 114.901 122.36 115.128 122.655C115.393 122.997 115.561 123.405 115.612 123.835C115.664 124.264 115.598 124.7 115.421 125.095C114.746 126.866 112.642 127.839 111.041 128.605C109.627 129.287 107.371 129.721 106.445 128.025C105.599 126.473 106.96 124.529 107.787 123.256C108.295 122.364 109.045 121.635 109.95 121.152C110.388 120.914 110.886 120.808 111.384 120.847C111.882 120.887 112.357 121.07 112.752 121.374C112.886 121.49 113.205 121.242 113.073 121.091C112.737 120.73 112.311 120.464 111.838 120.32C111.366 120.176 110.864 120.159 110.383 120.271C109.294 120.545 108.339 121.197 107.688 122.112C106.953 123.009 106.328 123.991 105.827 125.037C105.288 125.971 105.116 127.071 105.344 128.125C105.502 128.603 105.786 129.03 106.165 129.361C106.545 129.693 107.007 129.916 107.502 130.008C108.627 130.215 109.789 130.048 110.81 129.533C111.93 129.016 113.002 128.399 114.012 127.69C114.973 127.066 115.72 126.161 116.152 125.099C116.375 124.59 116.439 124.025 116.338 123.479C116.237 122.932 115.974 122.428 115.584 122.032Z" fill="#40A89C"/>
<path d="M55.2593 32.8287C55.1136 31.6644 55.0815 30.5315 54.9875 29.3707C55.0196 28.5517 54.7408 27.7509 54.2071 27.1289C53.1321 26.1821 51.3468 27.3646 50.7689 28.3568C51.2494 28.1574 51.7324 27.9898 52.2095 27.7861C50.6341 27.234 48.9273 27.1782 47.3192 27.6262C45.7111 28.0742 44.2789 29.0044 43.2159 30.2915C42.216 31.4523 41.4827 32.8183 41.0677 34.2931C40.6527 35.768 40.5662 37.3158 40.8142 38.8277C40.9678 40.3234 41.7064 41.6978 42.8689 42.6513C44.0314 43.6049 45.5237 44.0602 47.0206 43.9183C48.6792 43.7522 50.2587 43.1273 51.582 42.1138C52.9054 41.1002 53.9202 39.7381 54.5127 38.18C53.9979 38.3534 53.4752 38.522 52.9447 38.6861C54.037 39.754 55.4472 40.4373 56.9623 40.6326C58.4773 40.8279 60.0147 40.5246 61.3422 39.7687C62.7377 39.0817 63.9265 38.0376 64.788 36.7425C65.6495 35.4475 66.1529 33.9474 66.2471 32.3949C66.6735 25.3758 59.5952 20.2988 53.4052 18.8852C50.6252 18.1969 47.7112 18.2698 44.969 19.0961C42.2269 19.9224 39.7578 21.4717 37.8209 23.5814C35.9485 26.1891 34.7907 29.2411 34.4624 32.4345C34.134 35.628 34.6466 38.8518 35.9491 41.7859C36.9753 44.677 38.8006 47.2177 41.2132 49.1127C43.6257 51.0078 46.5265 52.1794 49.5784 52.4916C52.4494 52.7192 55.3268 52.1385 57.8847 50.8151C59.1223 50.1726 60.2523 49.3413 61.234 48.3511C61.9665 47.6171 63.4911 46.2093 62.8902 45.0423C62.3249 43.9976 60.7804 44.2738 59.9411 44.7526C59.409 45.1427 58.9276 45.5975 58.508 46.1068C57.8284 46.758 57.0491 47.2964 56.1997 47.7018C54.5786 48.3501 52.8233 48.5908 51.0875 48.4027C49.3517 48.2147 47.6887 47.6037 46.244 46.6232C43.43 44.5458 41.2878 41.6878 40.0834 38.404C38.8789 35.1201 38.665 31.5549 39.4684 28.1506C41.6071 20.1475 51.2066 20.931 56.7825 24.5891C58.1152 25.3755 59.273 26.4262 60.1847 27.6766C61.0964 28.927 61.7427 30.3507 62.0839 31.8601C62.5319 34.6548 60.6347 39.1178 57.1938 36.8097C56.6124 36.317 56.1402 35.7085 55.8071 35.023C55.474 34.3376 55.2875 33.5902 55.2593 32.8287C55.1935 32.3211 53.4999 32.8506 53.5814 33.4833C54.0127 36.405 55.7298 38.7411 58.9496 38.3859C60.1278 38.2319 61.2261 37.7054 62.0841 36.8832C62.9421 36.061 63.5149 34.9862 63.719 33.8156C64.8882 27.9329 58.9719 23.3335 54.0684 21.6862C48.5439 19.8295 41.0583 20.9421 38.4106 26.825C37.3229 29.8653 37.063 33.1399 37.6575 36.3137C38.252 39.4874 39.6796 42.4461 41.794 44.8864C43.7449 47.2305 46.4757 48.7925 49.4853 49.2856C52.4949 49.7787 55.5814 49.1699 58.1783 47.5709C58.7957 47.1731 59.3713 46.7137 59.8961 46.1998C60.1313 45.9681 60.4109 45.4951 60.7033 45.4231C61.1736 45.3229 61.3628 45.9545 61.2901 46.3252C60.9938 47.0409 60.5291 47.6746 59.9356 48.1724C59.3605 48.7557 58.7257 49.2768 58.0415 49.7272C55.5399 51.2577 52.5717 51.8385 49.6777 51.3638C46.5604 50.7724 43.6854 49.2786 41.4095 47.0677C39.1337 44.8569 37.5573 42.0263 36.876 38.9274C35.2307 32.9563 36.0502 25.2607 41.5775 21.5402C44.3428 19.9963 47.5107 19.3255 50.6645 19.6161C53.8183 19.9067 56.8102 21.145 59.2469 23.1682C60.7241 24.1253 61.9685 25.4006 62.889 26.9008C63.8094 28.4011 64.3826 30.0882 64.5666 31.8387C64.7593 33.5676 64.3194 35.3079 63.3282 36.7375C62.337 38.1671 60.8615 39.1894 59.1748 39.6152C58.3053 39.7272 57.4216 39.6245 56.6009 39.316C55.7802 39.0075 55.0477 38.5027 54.4672 37.8456C54.1468 37.5047 53.0684 37.9756 52.9186 38.3608C52.53 39.6715 51.7285 40.8218 50.6335 41.6404C49.5384 42.4589 48.2083 42.9019 46.8411 42.9035C45.6855 42.7251 44.6246 42.16 43.8318 41.3006C43.0389 40.4412 42.561 39.3383 42.4761 38.1721C41.7591 33.4896 45.2693 26.3619 50.93 28.755C51.2002 28.8039 51.4788 28.7755 51.7336 28.6732C51.9885 28.5709 52.2094 28.3988 52.3708 28.1766C52.9224 27.2227 53.3194 30.118 53.3331 30.4503C53.3806 31.4684 53.4606 32.4843 53.5814 33.4833C53.6477 33.9831 55.3405 33.4613 55.2593 32.8287Z" fill="#40A89C"/>
<path d="M50.3905 39.1228C50.1067 39.6107 49.709 40.0227 49.2313 40.3235C48.8434 40.5672 48.3939 40.6951 47.9358 40.692C47.3492 40.6902 46.7732 40.5348 46.2652 40.2415C45.7571 39.9481 45.3347 39.5269 45.0398 39.0197C44.3838 37.7107 44.1181 36.2406 44.2745 34.7847C44.4308 33.3289 45.0026 31.9487 45.9217 30.8088C46.5073 30.1137 47.3073 29.6331 48.196 29.4424C49.0847 29.2517 50.0115 29.3619 50.8307 29.7556C50.7594 29.6674 50.6934 29.575 50.6333 29.4788C50.5547 31.1434 50.6587 32.8116 50.9433 34.4535C51.0158 34.8489 51.1083 35.2404 51.2202 35.6266C51.3479 36.0083 51.3579 36.4196 51.2487 36.8071C51.0977 37.6226 50.8074 38.4059 50.3905 39.1228C50.1782 39.4882 50.6516 39.5797 50.902 39.5367C51.116 39.5251 51.3248 39.4657 51.5128 39.3628C51.7009 39.26 51.8635 39.1163 51.9888 38.9423C52.3987 38.2388 52.7015 37.4782 52.8871 36.6854C53.0007 36.2808 53.0595 35.8627 53.0621 35.4424C53 35.0627 52.8031 34.6621 52.7045 34.284C52.3562 32.5663 52.2295 30.8109 52.3276 29.061C52.3217 28.9047 52.242 28.8433 52.1138 28.791C51.0381 28.3717 49.8725 28.2365 48.7294 28.3985C47.5863 28.5604 46.5043 29.0141 45.5875 29.7158C44.1805 30.8828 43.1952 32.4791 42.7829 34.26C42.3706 36.0408 42.5539 37.9078 43.3048 39.5744C43.68 40.2398 44.2294 40.7905 44.8939 41.1673C45.5584 41.5441 46.3129 41.7328 47.0766 41.7132C48.0611 41.696 49.0259 41.4336 49.8836 40.9498C50.7412 40.466 51.4648 39.776 51.9888 38.9423C52.2072 38.6015 51.7177 38.5126 51.4759 38.5443C51.2638 38.5561 51.0568 38.6139 50.8694 38.7138C50.682 38.8138 50.5185 38.9533 50.3905 39.1228Z" fill="#40A89C"/>
<path d="M154.742 44.4921C152.941 46.5441 151.44 48.9267 149.785 51.1015C148.123 53.2953 146.428 55.4648 144.699 57.61C141.847 61.1602 138.892 64.619 135.911 68.0529C137.989 59.9075 140.063 51.7686 142.043 43.5984C142.206 42.969 141.388 43.1231 141.262 43.5984C138.722 52.5965 136.28 61.6292 133.844 70.6556C133.598 71.559 134.58 71.5684 135.052 71.0521C138.795 66.9136 142.464 62.6805 145.958 58.3245C147.686 56.1716 149.379 54 151.037 51.8096C152.787 49.6758 154.408 47.4394 155.891 45.1122C156.41 44.1995 155.34 43.8124 154.742 44.4921Z" fill="#40A89C"/>
<path d="M187.706 6.87324C184.424 4.95952 178.834 6.71274 175.378 7.22549C169.55 8.09436 163.742 9.08054 157.955 10.184C152.167 11.2982 146.402 12.5267 140.658 13.8697C137.787 14.54 134.928 15.2397 132.078 15.9687C130.272 16.2411 128.525 16.8202 126.913 17.681C123.713 19.9125 125.349 23.9694 125.998 27.1103C127.26 33.235 128.523 39.3533 129.787 45.4653C129.8 45.5268 129.827 45.5848 129.864 45.6354C129.902 45.686 129.95 45.728 130.005 45.7587C130.06 45.7893 130.121 45.8079 130.184 45.8132C130.247 45.8185 130.31 45.8105 130.369 45.7895C132.339 45.3425 134.344 44.861 136.314 44.3134C136.333 44.3763 136.333 44.4424 136.396 44.4894C136.657 44.6908 137.007 44.4581 137.152 44.2345C137.188 44.1743 137.216 44.1099 137.237 44.0427C138.127 43.7752 139.04 43.5454 139.912 43.2338C139.886 43.3124 139.852 43.3911 139.82 43.4697C139.742 43.6366 139.717 43.8883 139.95 43.9357C140.186 43.9702 140.368 43.753 140.437 43.5641C140.925 42.1699 141.407 40.7693 141.891 39.3657C141.964 39.1518 141.671 39.1643 141.602 39.3248C141.095 40.4892 140.588 41.654 140.094 42.8216C140.069 42.8119 140.053 42.7836 140.009 42.7932C139.21 42.8528 138.41 42.9821 137.611 43.1142C137.724 42.8058 137.847 42.4974 137.964 42.1889C138.134 41.7545 138.307 41.3265 138.429 40.8921C138.555 40.4483 138.69 40.0016 138.826 39.5578C138.911 39.243 138.521 39.2871 138.41 39.5011C138.03 40.2156 137.627 40.9205 137.315 41.6694C137.073 42.2015 136.846 42.73 136.613 43.2715C135.748 43.4259 134.886 43.5925 134.02 43.7562C133.885 43.7814 133.756 43.8191 133.624 43.8474C133.639 43.8244 133.653 43.8003 133.664 43.7752C133.768 43.5358 133.885 43.3124 133.989 43.0733C134.228 42.5728 134.461 42.0787 134.69 41.5782C134.923 41.0967 135.112 40.5994 135.314 40.1115C135.405 39.8788 135.515 39.6365 135.606 39.3973C135.663 39.2804 135.71 39.1594 135.748 39.0354C135.75 38.9468 135.732 38.8588 135.697 38.7773C135.691 38.7489 135.669 38.7489 135.638 38.7582C135.564 38.7986 135.493 38.8427 135.424 38.8904C135.329 38.9823 135.254 39.0927 135.203 39.2146L134.769 39.9356C134.489 40.4138 134.184 40.8921 133.929 41.3865C133.683 41.8583 133.435 42.3272 133.183 42.809C133.066 43.0482 132.928 43.2998 132.799 43.5358C132.707 43.7011 132.637 43.8778 132.591 44.0614C132.274 44.151 131.939 44.1532 131.621 44.0679C131.303 43.9826 131.014 43.8129 130.785 43.5767C130.52 43.1649 130.361 42.695 130.319 42.2077C130.341 42.2028 130.362 42.1943 130.382 42.1825C130.752 41.7847 131.067 41.3391 131.32 40.8576C131.597 40.4045 131.883 39.9668 132.169 39.5137C132.437 39.0731 132.736 38.6513 132.969 38.1981C133.202 37.7353 133.441 37.2696 133.671 36.81C133.756 36.637 133.579 36.5616 133.463 36.6937C133.139 37.0901 132.811 37.4868 132.494 37.8833C132.15 38.2987 131.864 38.7489 131.572 39.1834C131.272 39.6113 130.986 40.0393 130.687 40.4641C130.514 40.7223 130.331 40.9804 130.155 41.2414C130.064 40.4609 130.001 39.6774 129.916 39.2807L129.655 37.9306C129.721 37.852 129.781 37.7608 129.837 37.6789C129.966 37.5059 130.105 37.3199 130.221 37.1468C130.492 36.7881 130.74 36.423 130.973 36.0611C131.442 35.353 131.895 34.6511 132.352 33.9524C132.381 33.9117 132.393 33.8613 132.385 33.8119C132.378 33.7625 132.351 33.7181 132.311 33.6881C132.263 33.67 132.21 33.6685 132.161 33.6838C132.112 33.6992 132.07 33.7305 132.041 33.7729C131.505 34.4403 130.973 35.0981 130.442 35.7652C130.187 36.0959 129.929 36.4104 129.689 36.7536C129.617 36.8449 129.551 36.9422 129.475 37.0399C128.641 32.876 127.812 28.7142 126.986 24.5546C126.545 22.3296 126.24 22.0682 127.59 20.0414C128.975 17.942 129.655 18.0616 131.987 17.4828C134.429 16.872 136.88 16.2835 139.339 15.717C144.252 14.5838 149.185 13.5347 154.137 12.5696C159.088 11.6098 164.055 10.736 169.037 9.94813C173.893 8.86912 178.836 8.22449 183.807 8.02185C189.991 8.18557 188.714 16.0222 188.824 20.353C188.934 25.1779 188.874 30.0499 189.239 34.8651C189.186 34.8651 189.161 34.8116 189.094 34.8306C183.549 35.9982 178.035 37.3421 172.552 38.8214V38.8182C172.603 38.6764 172.637 38.5381 172.675 38.3931C172.754 38.1069 172.839 37.8143 172.927 37.5246C173.097 36.9328 173.26 36.3379 173.433 35.7465C173.512 35.4945 173.188 35.5135 173.109 35.6959C172.845 36.2783 172.603 36.8574 172.351 37.4366C172.228 37.7199 172.102 38.0028 171.979 38.2861C171.854 38.5294 171.756 38.7859 171.687 39.0509C170.362 39.416 169.024 39.7309 167.706 40.1115C168.272 38.903 168.848 37.6915 169.402 36.4797C169.487 36.316 169.279 36.2844 169.213 36.4169C168.445 37.7292 167.687 39.0383 166.925 40.3445C165.83 40.6749 164.738 40.9804 163.652 41.3172C163.834 40.8637 164.023 40.4106 164.206 39.9481C164.536 39.1518 164.797 38.3177 165.087 37.5059C165.166 37.2854 164.879 37.3199 164.797 37.4585C164.372 38.2326 163.919 38.988 163.523 39.7718C163.205 40.4012 162.893 41.0339 162.582 41.6633C161.446 42.0285 160.306 42.362 159.17 42.7584C159.211 42.5728 159.268 42.3904 159.302 42.2077C159.386 41.8175 159.49 41.4319 159.614 41.0526C159.857 40.2748 160.158 39.5163 160.514 38.7834C160.615 38.582 160.385 38.5536 160.294 38.7015C159.834 39.4414 159.431 40.2147 159.088 41.0149C158.813 41.6591 158.597 42.3271 158.443 43.0105C157.326 43.4069 156.183 43.753 155.072 44.1749C154.877 44.2503 154.729 44.6721 155.047 44.6061C166.405 42.1825 177.604 39.1044 188.972 36.7379C189.209 36.6621 189.419 36.5214 189.58 36.3316C189.741 36.1419 189.845 35.9108 189.881 35.6647C190.357 35.5512 190.948 35.0507 190.961 34.5882C191.127 28.6869 190.718 22.7102 190.558 16.806C190.479 13.558 191.036 8.80564 187.706 6.87324Z" fill="#40A89C"/>
<path d="M149.7 26.9755L149.376 26.601C149.11 26.3898 148.78 26.2774 148.441 26.2829C148.161 26.2823 147.885 26.347 147.635 26.4718C147.341 26.5718 147.069 26.7291 146.836 26.9346C146.572 27.1443 146.35 27.4015 146.181 27.6929C145.979 27.9485 145.834 28.2449 145.756 28.5618C145.712 28.7506 145.681 28.9424 145.652 29.1345C145.623 29.4855 145.697 29.8374 145.863 30.1477C145.973 30.2705 146.077 30.3933 146.181 30.5226C146.445 30.7262 146.77 30.8357 147.103 30.8339C147.386 30.839 147.667 30.7777 147.922 30.6547C148.211 30.5541 148.478 30.398 148.708 30.1951C148.977 29.9873 149.201 29.7285 149.369 29.4335C149.576 29.1781 149.724 28.8806 149.804 28.5618C149.838 28.3697 149.87 28.1808 149.908 27.9855C149.932 27.6362 149.86 27.2868 149.7 26.9755Z" fill="#40A89C"/>
<path d="M159.932 23.9688C159.765 23.8238 159.554 23.7394 159.334 23.7294C159.104 23.6701 158.861 23.6823 158.638 23.7642C158.29 23.8542 157.968 24.0245 157.697 24.2615C157.392 24.5161 157.139 24.827 156.951 25.1774C156.939 25.2065 156.923 25.2339 156.904 25.2589C156.85 25.4259 156.775 25.5989 156.709 25.7688C156.622 26.0029 156.595 26.255 156.63 26.5023C156.617 26.6549 156.649 26.8081 156.722 26.9428C156.773 27.155 156.898 27.3422 157.074 27.4717C157.203 27.5439 157.326 27.6132 157.455 27.6793C157.593 27.7044 157.741 27.7295 157.886 27.7486C158.13 27.7544 158.371 27.6992 158.588 27.5881C158.843 27.5035 159.078 27.3687 159.28 27.1917C159.301 27.1663 159.326 27.144 159.353 27.1253C159.653 26.8675 159.906 26.5584 160.098 26.2126C160.265 25.8954 160.365 25.5473 160.391 25.19C160.385 25.0295 160.372 24.8719 160.36 24.7114C160.312 24.4203 160.16 24.1565 159.932 23.9688Z" fill="#40A89C"/>
<path d="M169.147 22.5821C169.048 22.3887 168.883 22.2377 168.681 22.1573C168.569 22.0638 168.424 22.0175 168.278 22.0281C168.135 21.9772 167.979 21.9751 167.834 22.0219C167.672 22.0246 167.512 22.0666 167.369 22.1444C167.204 22.1947 167.05 22.2782 166.919 22.39C166.67 22.5326 166.453 22.7255 166.283 22.9566C166.179 23.1138 166.069 23.2775 165.965 23.438C165.899 23.6018 165.823 23.7655 165.751 23.9386C165.726 24.1023 165.704 24.2689 165.666 24.4326C165.679 24.5899 165.685 24.741 165.697 24.8954C165.745 25.0308 165.795 25.166 165.849 25.3012C165.948 25.4942 166.113 25.6451 166.314 25.7262C166.427 25.8194 166.571 25.8676 166.717 25.8616C166.937 25.9169 167.168 25.9059 167.381 25.83L167.633 25.7449C167.851 25.6968 168.054 25.5963 168.225 25.4523C168.439 25.3344 168.625 25.1725 168.772 24.9773C168.857 24.8355 168.958 24.694 169.049 24.5554C169.196 24.2922 169.283 24 169.304 23.6994C169.304 23.6143 169.317 23.5292 169.317 23.4506C169.304 23.2966 169.298 23.139 169.292 22.9849C169.236 22.8535 169.187 22.719 169.147 22.5821Z" fill="#40A89C"/>
<path d="M212.746 78.8883C217.318 77.0529 222.317 76.5509 227.163 77.4404C232.008 78.33 236.503 80.5747 240.125 83.9144C243.751 87.1886 246.479 91.3362 248.048 95.9627C249.618 100.589 249.977 105.54 249.092 110.345C247.927 115.841 245.138 120.861 241.088 124.755C237.037 128.649 231.91 131.237 226.372 132.184C225.963 132.238 225.687 131.354 226.11 131.246C230.429 130.089 234.439 127.992 237.854 125.105C241.269 122.219 244.004 118.613 245.864 114.547C247.705 110.276 248.329 105.58 247.667 100.977C247.005 96.374 245.084 92.0434 242.115 88.464C239.277 84.8588 235.479 82.1273 231.159 80.583C226.838 79.0388 222.17 78.7446 217.689 79.734C213.309 80.6382 209.25 82.6975 205.933 85.6984C202.617 88.6992 200.163 92.5325 198.826 96.8008C197.499 101.864 197.851 107.222 199.828 112.068C201.806 116.915 205.303 120.989 209.794 123.678C210.043 123.86 210.236 124.108 210.352 124.393C210.469 124.678 210.504 124.99 210.454 125.294C210.613 124.63 211.408 124.642 211.754 125.409C212.312 126.885 212.571 128.457 212.516 130.034C212.515 131.599 212.299 133.157 211.873 134.664C211.277 136.759 210.279 138.719 208.935 140.434C211.792 139.871 214.452 138.57 216.651 136.661C218.849 134.751 220.511 132.3 221.469 129.55C221.618 129.107 222.059 129.578 221.998 129.885C221.336 133.439 219.404 136.631 216.564 138.867C213.793 141.17 210.333 142.482 206.733 142.597C205.977 142.619 205.472 141.34 206.016 140.834C208.062 138.931 209.547 136.503 210.306 133.813C210.679 132.504 210.869 131.149 210.873 129.788C210.809 128.409 210.649 127.037 210.392 125.681C210.377 125.559 210.395 125.434 210.445 125.321C210.339 125.889 209.953 126.278 209.266 125.881C205.067 123.327 201.636 119.688 199.332 115.347C197.029 111.006 195.939 106.123 196.178 101.215C196.49 96.2914 198.221 91.5635 201.16 87.6017C204.1 83.64 208.124 80.6138 212.746 78.8883Z" fill="#40A89C"/>
<path d="M232.725 93.4674C232.656 93.2401 232.594 93.0069 232.519 92.7785C232.382 92.3037 232.247 91.8226 232.102 91.3437C231.963 90.8888 231.778 90.4347 231.613 89.9767C231.682 89.7749 231.712 89.5621 231.701 89.3494C231.653 87.9751 230.03 87.9644 228.999 87.8018L226.331 87.3873C225.626 87.2106 224.898 87.1395 224.171 87.1764C223.015 87.3475 222.623 88.2611 222.367 89.2667C221.934 91.0056 221.514 92.7494 221.084 94.4917C220.613 96.432 220.163 98.3682 219.719 100.312C218.952 102.697 218.366 105.136 217.966 107.61C217.954 107.708 218.022 107.726 218.101 107.726C218.041 107.788 218.025 107.866 218.136 107.909C218.756 108.127 219.389 108.307 220.032 108.447C220.273 108.486 220.51 108.531 220.752 108.566C220.702 109.334 220.697 110.104 220.736 110.873C220.734 111.255 220.739 111.654 220.743 112.04C220.71 112.436 220.748 112.836 220.855 113.219C220.912 113.326 221.076 113.312 221.156 113.288C221.215 113.268 221.269 113.234 221.312 113.188C221.354 113.142 221.385 113.086 221.4 113.025C221.461 112.643 221.457 112.254 221.387 111.874C221.358 111.475 221.31 111.078 221.273 110.685C221.233 109.992 221.151 109.302 221.028 108.619C221.369 108.68 221.704 108.743 222.052 108.804C222.094 108.797 222.135 108.783 222.173 108.762C222.117 109.483 222.104 110.207 222.134 110.93C222.16 111.408 222.206 111.889 222.278 112.372C222.317 112.629 222.357 112.873 222.4 113.131C222.457 113.403 222.456 113.639 222.744 113.76C222.846 113.787 222.955 113.781 223.053 113.742C223.152 113.703 223.235 113.633 223.291 113.542C223.423 113.538 223.551 113.502 223.666 113.438C223.781 113.373 223.88 113.283 223.953 113.173C225.342 110.495 226.714 107.785 227.997 105.025C228.091 104.957 228.164 104.872 228.137 104.769L228.131 104.732C229.289 102.209 230.377 99.6551 231.317 97.06C231.366 97.0544 231.412 97.034 231.448 97.0015C231.485 96.9689 231.511 96.9258 231.522 96.8782C231.521 96.789 231.502 96.7008 231.466 96.6191C231.734 95.9102 232.016 95.2099 232.245 94.4864C232.307 94.5109 232.374 94.5211 232.441 94.5165C232.507 94.5118 232.572 94.4924 232.63 94.4595C232.688 94.4267 232.738 94.3813 232.776 94.3266C232.814 94.272 232.84 94.2094 232.851 94.1436C232.862 93.9115 232.819 93.68 232.725 93.4674ZM222.434 107.856C222.417 107.846 222.397 107.839 222.376 107.839C222.356 107.838 222.336 107.843 222.318 107.853C221.682 107.787 221.053 107.709 220.41 107.639C219.709 107.582 219.005 107.569 218.302 107.6C219.202 105.441 219.958 103.226 220.568 100.968C221.047 99.2277 221.539 97.4756 221.994 95.7162C222.459 93.8485 222.936 91.9654 223.412 90.0888C223.472 89.6734 223.578 89.2661 223.729 88.8745C224.07 88.2474 224.332 88.3052 225.016 88.423C225.907 88.5558 226.793 88.6981 227.695 88.8522C228.575 88.9901 230.365 88.8282 230.227 90.1536C229.956 91.058 229.574 91.9251 229.089 92.7351C228.342 94.4567 227.584 96.1664 226.824 97.8864C225.365 101.21 223.893 104.536 222.434 107.856ZM223.222 112.395C223.189 112.281 223.152 112.174 223.126 112.055C223.001 111.605 222.893 111.143 222.808 110.681C222.707 110.103 222.642 109.518 222.615 108.931C222.773 108.936 222.93 108.899 223.069 108.823C223.208 108.748 223.325 108.636 223.407 108.501C223.411 108.744 223.396 108.984 223.407 109.225C223.42 109.588 223.433 109.952 223.469 110.318C223.478 110.492 223.504 110.668 223.529 110.85C223.527 111.052 223.576 111.251 223.673 111.429L223.688 111.441C223.531 111.754 223.383 112.078 223.222 112.395ZM224.187 110.404C224.177 110.318 224.162 110.233 224.141 110.149C224.06 109.791 223.987 109.433 223.927 109.074C223.849 108.64 223.812 108.197 223.754 107.758C224.013 107.151 224.284 106.552 224.555 105.95C224.576 106.331 224.587 106.711 224.638 107.086C224.682 107.443 224.734 107.818 224.814 108.18C224.85 108.354 224.889 108.521 224.932 108.696C224.94 108.733 224.955 108.775 224.965 108.809C224.711 109.347 224.455 109.881 224.187 110.404ZM225.338 108.046C225.32 108.004 225.31 107.959 225.307 107.913C225.214 107.58 225.112 107.242 225.023 106.9C224.905 106.437 224.838 105.971 224.757 105.503C225.02 104.919 225.271 104.345 225.534 103.752L225.722 104.767C225.788 105.134 225.855 105.491 225.915 105.85C225.965 106.075 226.012 106.32 226.071 106.553C225.822 107.048 225.576 107.55 225.338 108.046ZM226.436 105.796C226.43 105.753 226.42 105.711 226.408 105.669C226.327 105.321 226.233 104.968 226.145 104.615L225.787 103.187C226.026 102.631 226.283 102.067 226.535 101.509C226.605 101.85 226.639 102.199 226.746 102.561C226.88 102.989 227.011 103.399 227.164 103.816C227.206 103.904 227.242 103.995 227.271 104.088C226.991 104.659 226.711 105.22 226.436 105.796ZM227.591 103.409C227.454 103.057 227.319 102.709 227.209 102.354C227.045 101.889 226.926 101.413 226.776 100.94C227.136 100.146 227.486 99.3572 227.84 98.5623C227.936 98.3411 228.042 98.121 228.131 97.9057C228.145 98.2894 228.148 98.682 228.178 99.071C228.204 99.4626 228.247 99.8531 228.266 100.23C228.264 100.631 228.317 101.029 228.423 101.415C228.444 101.45 228.474 101.479 228.51 101.499C228.195 102.135 227.893 102.77 227.591 103.409ZM229.012 100.409C228.987 100.283 228.965 100.158 228.948 100.026C228.896 99.6481 228.81 99.2824 228.765 98.9083C228.672 98.3523 228.541 97.8117 228.421 97.2563L229.137 95.6175C229.327 96.7296 229.512 97.8278 229.612 98.9428C229.62 98.987 229.652 98.9973 229.68 99.0105C229.444 99.4807 229.236 99.9444 229.012 100.409ZM230.027 98.2715C229.875 97.2099 229.654 96.1594 229.365 95.1266C229.599 94.6197 229.823 94.1049 230.043 93.5964C230.146 93.3726 230.239 93.148 230.356 92.9161C230.403 93.4464 230.437 93.9655 230.53 94.4946C230.605 94.9253 230.69 95.3576 230.79 95.7682C230.829 95.9719 230.881 96.1773 230.922 96.3884L230.922 96.3948C230.615 97.0161 230.321 97.6453 230.027 98.2715ZM231.237 95.7582C231.218 95.7124 231.204 95.6651 231.194 95.6169C231.09 95.2059 230.97 94.7896 230.878 94.3667C230.741 93.7824 230.617 93.2097 230.475 92.618C230.67 92.183 230.875 91.7391 231.062 91.3127C231.132 91.1419 231.21 90.9749 231.298 90.8126C231.35 91.0681 231.375 91.3334 231.434 91.5931C231.528 92.0591 231.644 92.5314 231.751 93.0027C231.812 93.2392 231.854 93.4766 231.919 93.7135C231.952 93.8505 231.987 94.004 232.026 94.1548C231.75 94.6832 231.499 95.2282 231.237 95.7582Z" fill="#40A89C"/>
<path d="M222.743 118.557C222.683 118.424 222.614 118.302 222.546 118.178C222.414 117.92 222.272 117.664 222.133 117.408L221.721 116.655C221.666 116.532 221.595 116.404 221.533 116.28C221.45 116.153 221.357 116.033 221.254 115.921C221.215 115.88 221.125 115.913 221.138 115.974C221.146 116.021 221.161 116.056 221.169 116.101C221.132 116.076 221.111 116.034 221.074 116.036L216.829 116.118C216.875 116.014 216.874 115.908 216.912 115.813C216.924 115.787 216.93 115.758 216.929 115.729C216.927 115.7 216.918 115.672 216.903 115.648C216.887 115.623 216.866 115.603 216.841 115.589C216.815 115.576 216.787 115.568 216.758 115.568C216.689 115.566 216.621 115.585 216.563 115.622C216.505 115.659 216.459 115.712 216.431 115.775C216.123 116.362 215.883 116.982 215.716 117.623C215.633 117.935 215.568 118.251 215.52 118.57C215.49 118.736 215.47 118.905 215.46 119.074C215.465 119.242 215.499 119.408 215.561 119.565C215.679 119.944 216.202 119.651 216.274 119.381C216.327 119.207 216.359 119.028 216.368 118.847C216.374 118.711 216.37 118.578 216.364 118.455C216.381 118.147 216.403 117.851 216.446 117.544C216.522 117.164 216.623 116.79 216.749 116.424C217.953 116.528 219.152 116.634 220.365 116.746C220.077 117.282 219.837 117.842 219.647 118.421C219.507 118.922 219.4 119.432 219.326 119.947C219.224 119.962 219.12 119.969 219.017 119.97C218.668 120.005 218.302 120.037 217.943 120.064C217.202 120.125 216.46 120.186 215.711 120.257C215.51 120.269 215.301 120.66 215.6 120.662C215.713 120.659 215.836 120.657 215.965 120.662C216.094 121.083 216.225 121.517 216.354 121.944C216.431 122.166 216.5 122.394 216.57 122.615C216.603 122.728 216.632 122.841 216.673 122.949C216.7 123.055 216.706 123.199 216.815 123.255C216.898 123.318 216.992 123.253 217.037 123.178C217.276 123.177 217.513 123.199 217.752 123.2C218.013 123.212 218.266 123.205 218.526 123.23C218.784 123.245 219.041 123.273 219.296 123.315C219.558 123.353 219.815 123.453 220.085 123.472L220.1 123.46C220.126 123.546 220.121 123.646 220.157 123.733C220.164 123.77 220.185 123.804 220.215 123.828C220.245 123.852 220.282 123.865 220.32 123.865C220.29 123.948 220.243 124.039 220.214 124.118C220.072 124.556 220.758 124.512 220.871 124.18C221.434 122.463 221.968 120.74 222.389 118.996C222.425 119.064 222.468 119.128 222.515 119.188C222.645 119.326 222.923 119.113 222.903 118.945C222.871 118.808 222.817 118.677 222.743 118.557ZM217.892 122.891C217.934 122.843 217.98 122.796 217.96 122.74C217.725 122.064 217.482 121.401 217.239 120.731C217.197 120.61 216.974 120.703 217.009 120.823C217.213 121.505 217.408 122.186 217.608 122.871C217.622 122.926 217.683 122.917 217.739 122.917C217.507 122.972 217.29 123.013 217.069 123.079C217.069 122.978 217.04 122.879 216.987 122.794C216.954 122.707 216.914 122.599 216.863 122.49C216.78 122.268 216.69 122.051 216.6 121.828C216.448 121.434 216.288 121.046 216.128 120.662C216.681 120.651 217.23 120.643 217.785 120.64C217.941 120.639 218.087 120.636 218.237 120.634C218.289 121.009 218.342 121.371 218.401 121.743C218.446 122.117 218.525 122.482 218.604 122.854C218.366 122.851 218.128 122.863 217.892 122.891ZM219.498 122.88C219.323 122.866 219.159 122.853 218.993 122.853C219.004 122.829 219.011 122.803 219.012 122.776C218.912 122.392 218.821 122.009 218.698 121.642C218.583 121.303 218.466 120.97 218.361 120.629C218.52 120.628 218.676 120.63 218.836 120.629C218.959 120.624 219.082 120.622 219.205 120.623C219.207 120.681 219.222 120.739 219.248 120.791C219.275 120.843 219.313 120.888 219.359 120.923C219.405 120.959 219.459 120.983 219.516 120.995C219.573 121.008 219.632 121.007 219.689 120.993C219.73 120.988 219.758 120.945 219.806 120.931C219.828 121.199 219.832 121.469 219.866 121.745C219.901 122.085 219.939 122.411 219.983 122.739C219.995 122.803 220.007 122.871 220.02 122.929C219.844 122.902 219.649 122.892 219.498 122.88ZM222.279 118.94C221.953 119.669 221.67 120.422 221.389 121.172C221.304 120.963 221.217 120.773 221.133 120.561C220.961 120.158 220.79 119.756 220.612 119.353C220.604 119.312 220.53 119.349 220.539 119.384C220.675 119.799 220.806 120.233 220.956 120.652C221.008 120.852 221.08 121.062 221.157 121.274C221.181 121.354 221.222 121.431 221.257 121.519C221.051 122.052 220.823 122.573 220.616 123.11C220.568 122.931 220.531 122.738 220.489 122.563C220.398 122.24 220.326 121.923 220.261 121.606C220.197 121.333 220.161 121.049 220.108 120.767C220.214 120.683 220.282 120.56 220.298 120.425C220.394 119.732 220.55 119.063 220.716 118.372C220.768 118.244 220.81 118.113 220.842 117.978C221.049 118.504 221.245 119.029 221.444 119.568C221.486 119.656 221.643 119.625 221.707 119.586C221.752 119.565 221.788 119.529 221.807 119.483C221.827 119.438 221.829 119.387 221.813 119.34C221.525 118.771 221.241 118.202 220.954 117.626C221.047 117.248 221.161 116.874 221.293 116.507C221.342 116.603 221.374 116.7 221.409 116.787C221.524 117.05 221.641 117.329 221.764 117.603C221.873 117.859 221.99 118.128 222.102 118.388C222.171 118.563 222.25 118.734 222.337 118.9C222.309 118.91 222.275 118.919 222.279 118.94Z" fill="#40A89C"/>
<path d="M222.065 112.376C221.37 112.273 220.668 112.227 219.965 112.239C219.615 112.221 219.274 112.213 218.914 112.196C218.626 112.189 218.447 112.128 218.368 111.819C218.248 111.217 218.182 110.606 218.17 109.992C218.118 109.318 218.087 108.644 218.079 107.968C218.076 107.888 217.926 107.947 217.924 108.013C217.844 108.744 217.788 109.491 217.75 110.231C217.745 110.606 217.729 110.989 217.725 111.36C217.702 111.655 217.719 111.951 217.776 112.24C217.973 112.902 218.783 112.882 219.338 112.961L220.387 113.126C220.767 113.213 221.153 113.265 221.542 113.28C221.676 113.283 221.809 113.25 221.927 113.185C222.044 113.121 222.143 113.027 222.213 112.912C222.317 112.738 222.327 112.434 222.065 112.376Z" fill="#40A89C"/>
<path d="M219.619 110.933C219.544 110.648 219.475 110.361 219.419 110.072C219.365 109.776 219.314 109.481 219.286 109.189C219.263 109.045 219.248 108.9 219.241 108.755C219.209 108.6 219.168 108.446 219.12 108.296C219.105 108.171 218.924 108.265 218.913 108.357C218.874 108.523 218.849 108.693 218.836 108.863C218.83 108.995 218.839 109.146 218.843 109.279C218.847 109.595 218.87 109.91 218.91 110.224C218.932 110.539 218.972 110.842 219.025 111.154C219.047 111.464 219.125 111.768 219.253 112.052C219.398 112.261 219.819 112.073 219.814 111.839C219.788 111.53 219.722 111.225 219.619 110.933Z" fill="#40A89C"/>
</svg>
