<svg width="518" height="276" viewBox="0 0 518 276" fill="none" xmlns="http://www.w3.org/2000/svg">
<g clip-path="url(#clip0_417_2404)">
<path d="M169.43 105.082C175.97 113.502 182.003 122.304 187.498 131.44C198.523 149.597 207.829 168.722 217.16 187.783C226.536 206.934 235.67 226.605 247.296 244.528C252.328 252.287 259.891 261.103 270.02 260.813C275.012 260.518 279.847 258.964 284.075 256.295C288.303 253.626 291.787 249.93 294.201 245.552C298.512 237.264 299.404 227.388 300.212 218.228C301.07 208.05 301.198 197.823 300.593 187.627C299.443 166.846 295.803 146.299 291.789 125.909C287.731 105.297 283.243 84.7492 280.311 63.9352C278.642 53.5072 277.681 42.9781 277.434 32.4203C277.102 26.4076 278.477 20.4237 281.4 15.1589C282.306 13.6767 283.421 12.3328 284.711 11.1689C285.028 10.8882 285.377 10.6485 285.709 10.3917C300.003 7.83319 315.577 15.2605 326.799 24.1801C341.596 35.9415 354.529 50.6928 366.305 65.3987C391.012 96.2521 410.755 130.657 430.354 164.867C449.867 198.924 469.337 233.261 493.591 264.239C505.509 279.652 518.848 293.913 533.433 306.833C539.621 312.248 546.798 319.185 555.732 316.963C560.715 315.723 566.987 312.805 569.191 307.836C571.243 303.208 570.437 297.194 569.947 292.326C568.845 281.588 565.916 271.117 561.287 261.365C560.494 259.685 549.92 264.578 550.708 266.247C555.483 276.305 558.447 287.126 559.464 298.214C559.75 300.906 559.861 303.614 559.798 306.321C559.767 307.739 559.566 309.148 559.198 310.518C559.067 310.929 558.913 311.332 558.739 311.727C558.688 311.719 558.629 311.712 558.598 311.703C557.615 311.435 556.657 311.081 555.735 310.648C553.601 309.63 551.601 308.353 549.78 306.847C534.741 294.454 521.039 280.522 508.9 265.277C483.961 234.716 464.12 200.436 444.556 166.308C424.997 132.188 405.615 97.7346 381.578 66.4981C369.752 50.9364 356.529 36.4879 342.074 23.3326C330.719 13.1256 315.982 4.44496 300.286 4.37449C291.92 4.51796 283.821 7.34071 277.178 12.428C269.091 18.5974 266.757 28.0498 266.858 37.8364C267.072 58.6785 271.142 79.6922 275.091 100.087C282.956 140.702 293.373 181.886 289.593 223.581C288.744 232.94 287.733 243.207 282.728 251.409C282.17 252.345 281.535 253.234 280.831 254.067C280.551 254.391 279.841 254.92 279.371 255.395C279.26 255.403 279.195 255.411 279.063 255.418C277.69 255.472 276.318 255.308 274.996 254.934C270.155 253.312 265.904 250.291 262.78 246.253C255.852 238.245 250.95 228.196 245.959 218.92C240.828 209.385 235.988 199.697 231.21 189.98C212.688 152.315 194.699 111.974 164.152 82.2337C160.432 78.612 156.153 75.5663 150.746 75.7364C146.063 76.1403 141.567 77.762 137.705 80.4404C130.855 84.8714 128.144 92.4776 127.125 100.262C126.095 108.128 127.651 115.993 126.159 123.821C125.521 127.607 124.224 131.253 122.328 134.591C121.888 135.269 121.38 135.899 120.811 136.472C120.465 136.455 120.12 136.412 119.78 136.344C113.806 135.014 110.249 129.283 107.005 124.591L96.0186 108.7C89.1368 98.746 82.5799 88.3571 74.4899 79.319C67.5282 71.5418 58.5059 64.0983 47.9764 62.0916C38.1609 60.2209 27.8777 62.9934 19.2423 67.6894C11.3799 71.9651 4.84916 78.2104 3.93335 87.5011C3.83764 88.4737 9.37243 86.3804 9.75149 86.2054C11.089 85.588 14.3394 84.3682 14.5119 82.6187C14.9538 78.0392 17.0506 73.778 20.4095 70.6338C23.0012 68.3503 26.3221 67.0655 29.7759 67.0105C40.6404 66.0469 50.5475 71.4425 58.3686 78.5767C67.0031 86.453 73.5095 96.3258 80.1132 105.877C83.7754 111.174 87.4377 116.471 91.1001 121.768C94.5491 126.757 97.7391 132.273 101.913 136.701C103.355 138.391 105.155 139.74 107.183 140.648C109.211 141.556 111.415 142.002 113.637 141.952C118.407 141.447 122.959 139.686 126.828 136.849C133.113 132.527 135.856 125.208 136.949 117.914C138.147 109.915 136.54 101.903 137.947 93.915C138.521 90.1379 139.756 86.4916 141.596 83.1437C142.038 82.4485 142.556 81.8049 143.141 81.225C144.127 81.3119 145.099 81.5174 146.035 81.8371C151.472 83.8079 155.618 89.0638 159.414 93.2224C162.904 97.0446 166.239 101.008 169.43 105.082Z" fill="white"/>
</g>
<defs>
<clipPath id="clip0_417_2404">
<rect width="518" height="276" fill="white"/>
</clipPath>
</defs>
</svg>
